<svg width="169" height="47" viewBox="0 0 169 47" fill="none" xmlns="http://www.w3.org/2000/svg">
<g filter="url(#filter0_b_1_40)">
<path d="M11.2895 21.16H32.7935V29.48H11.2895V21.16ZM12.0575 45.8H1.68945V1H35.5455V9.32H12.0575V45.8Z" fill="#F0F0F0" fill-opacity="0.05"/>
<path d="M42.5645 45.8V1H61.9565C65.9671 1 69.4231 1.66133 72.3245 2.984C75.2258 4.264 77.4658 6.12 79.0445 8.552C80.6231 10.984 81.4125 13.8853 81.4125 17.256C81.4125 20.584 80.6231 23.464 79.0445 25.896C77.4658 28.2853 75.2258 30.12 72.3245 31.4C69.4231 32.68 65.9671 33.32 61.9565 33.32H48.3245L52.9325 28.776V45.8H42.5645ZM71.0444 45.8L59.8445 29.544H70.9165L82.2445 45.8H71.0444ZM52.9325 29.928L48.3245 25.064H61.3805C64.5805 25.064 66.9698 24.3813 68.5485 23.016C70.1271 21.608 70.9165 19.688 70.9165 17.256C70.9165 14.7813 70.1271 12.8613 68.5485 11.496C66.9698 10.1307 64.5805 9.448 61.3805 9.448H48.3245L52.9325 4.52V29.928Z" fill="#F0F0F0" fill-opacity="0.05"/>
<path d="M99.163 19.048H120.731V27.112H99.163V19.048ZM99.931 37.48H124.315V45.8H89.627V1H123.483V9.32H99.931V37.48Z" fill="#F0F0F0" fill-opacity="0.05"/>
<path d="M142.1 19.048H163.668V27.112H142.1V19.048ZM142.868 37.48H167.252V45.8H132.564V1H166.42V9.32H142.868V37.48Z" fill="#F0F0F0" fill-opacity="0.05"/>
<path d="M12.5575 45.8V29.98H32.7935H33.2935V29.48V21.16V20.66H32.7935H12.5575V9.82H35.5455H36.0455V9.32V1V0.5H35.5455H1.68945H1.18945V1V45.8V46.3H1.68945H12.0575H12.5575V45.8ZM42.0645 45.8V46.3H42.5645H52.9325H53.4325V45.8V33.82H61.9565C62.0321 33.82 62.1076 33.8198 62.1829 33.8193L70.6327 46.0837L70.7818 46.3H71.0444H82.2445H83.2023L82.6547 45.5141L72.9903 31.6455C75.7473 30.3425 77.9105 28.5193 79.4616 26.1716L79.4638 26.1682C81.1026 23.6437 81.9125 20.666 81.9125 17.256C81.9125 13.8048 81.1032 10.8053 79.4638 8.27977C77.8278 5.75934 75.5094 3.84316 72.529 2.52777C69.5487 1.16966 66.0195 0.5 61.9565 0.5H42.5645H42.0645V1V45.8ZM61.3805 24.564H53.4325V9.948H61.3805C64.5218 9.948 66.7712 10.62 68.2214 11.8742C69.6696 13.1267 70.4165 14.8969 70.4165 17.256C70.4165 19.5675 69.6725 21.342 68.2185 22.6403C66.7683 23.8929 64.5197 24.564 61.3805 24.564ZM100.431 36.98V27.612H120.731H121.231V27.112V19.048V18.548H120.731H100.431V9.82H123.483H123.983V9.32V1V0.5H123.483H89.627H89.127V1V45.8V46.3H89.627H124.315H124.815V45.8V37.48V36.98H124.315H100.431ZM143.368 36.98V27.612H163.668H164.168V27.112V19.048V18.548H163.668H143.368V9.82H166.42H166.92V9.32V1V0.5H166.42H132.564H132.064V1V45.8V46.3H132.564H167.252H167.752V45.8V37.48V36.98H167.252H143.368Z" stroke="url(#paint0_linear_1_40)"/>
</g>
<defs>
<filter id="filter0_b_1_40" x="-1.31055" y="-2" width="171.563" height="50.8" filterUnits="userSpaceOnUse" color-interpolation-filters="sRGB">
<feFlood flood-opacity="0" result="BackgroundImageFix"/>
<feGaussianBlur in="BackgroundImageFix" stdDeviation="1"/>
<feComposite in2="SourceAlpha" operator="in" result="effect1_backgroundBlur_1_40"/>
<feBlend mode="normal" in="SourceGraphic" in2="effect1_backgroundBlur_1_40" result="shape"/>
</filter>
<linearGradient id="paint0_linear_1_40" x1="83.9999" y1="-21" x2="78.9999" y2="65.5" gradientUnits="userSpaceOnUse">
<stop stop-color="#F0F0F0"/>
<stop offset="1" stop-color="#F0F0F0" stop-opacity="0"/>
</linearGradient>
</defs>
</svg>
