<svg width="193" height="47" viewBox="0 0 193 47" fill="none" xmlns="http://www.w3.org/2000/svg">
<path d="M9.85244 20.928H31.3564V29.248H9.85244V20.928ZM10.6204 45.568H0.252441V0.767998H34.1084V9.088H10.6204V45.568Z" fill="#F0F0F0"/>
<path d="M41.1274 45.568V0.767998H60.5194C64.5301 0.767998 67.9861 1.42933 70.8874 2.752C73.7888 4.032 76.0288 5.888 77.6074 8.32C79.1861 10.752 79.9754 13.6533 79.9754 17.024C79.9754 20.352 79.1861 23.232 77.6074 25.664C76.0288 28.0533 73.7888 29.888 70.8874 31.168C67.9861 32.448 64.5301 33.088 60.5194 33.088H46.8874L51.4954 28.544V45.568H41.1274ZM69.6074 45.568L58.4074 29.312H69.4794L80.8074 45.568H69.6074ZM51.4954 29.696L46.8874 24.832H59.9434C63.1434 24.832 65.5328 24.1493 67.1114 22.784C68.6901 21.376 69.4794 19.456 69.4794 17.024C69.4794 14.5493 68.6901 12.6293 67.1114 11.264C65.5328 9.89867 63.1434 9.216 59.9434 9.216H46.8874L51.4954 4.288V29.696Z" fill="#F0F0F0"/>
<path d="M109.95 46.336C106.409 46.336 103.123 45.76 100.094 44.608C97.1073 43.456 94.5046 41.8347 92.2859 39.744C90.1099 37.6533 88.4033 35.2 87.1659 32.384C85.9713 29.568 85.3739 26.496 85.3739 23.168C85.3739 19.84 85.9713 16.768 87.1659 13.952C88.4033 11.136 90.1313 8.68267 92.3499 6.592C94.5686 4.50133 97.1713 2.88 100.158 1.728C103.145 0.575999 106.387 0 109.886 0C113.427 0 116.67 0.575999 119.614 1.728C122.601 2.88 125.182 4.50133 127.358 6.592C129.577 8.68267 131.305 11.136 132.542 13.952C133.779 16.7253 134.398 19.7973 134.398 23.168C134.398 26.496 133.779 29.5893 132.542 32.448C131.305 35.264 129.577 37.7173 127.358 39.808C125.182 41.856 122.601 43.456 119.614 44.608C116.67 45.76 113.449 46.336 109.95 46.336ZM109.886 37.504C111.891 37.504 113.726 37.1627 115.39 36.48C117.097 35.7973 118.59 34.816 119.87 33.536C121.15 32.256 122.131 30.7413 122.814 28.992C123.539 27.2427 123.902 25.3013 123.902 23.168C123.902 21.0347 123.539 19.0933 122.814 17.344C122.131 15.5947 121.15 14.08 119.87 12.8C118.633 11.52 117.161 10.5387 115.454 9.856C113.747 9.17333 111.891 8.832 109.886 8.832C107.881 8.832 106.025 9.17333 104.318 9.856C102.654 10.5387 101.182 11.52 99.9019 12.8C98.6219 14.08 97.6193 15.5947 96.8939 17.344C96.2113 19.0933 95.8699 21.0347 95.8699 23.168C95.8699 25.2587 96.2113 27.2 96.8939 28.992C97.6193 30.7413 98.6006 32.256 99.8379 33.536C101.118 34.816 102.611 35.7973 104.318 36.48C106.025 37.1627 107.881 37.504 109.886 37.504Z" fill="#F0F0F0"/>
<path d="M142.19 45.568V0.767998H150.766L169.838 32.384H165.294L184.046 0.767998H192.558L192.686 45.568H182.958L182.894 15.68H184.686L169.71 40.832H165.038L149.742 15.68H151.918V45.568H142.19Z" fill="#F0F0F0"/>
</svg>
