<svg width="249" height="47" viewBox="0 0 249 47" fill="none" xmlns="http://www.w3.org/2000/svg">
<path d="M0.686035 45.568V0.767998H9.26204L35.694 33.024H31.534V0.767998H41.774V45.568H33.262L6.76604 13.312H10.926V45.568H0.686035Z" fill="#F0F0F0"/>
<path d="M74.1335 46.336C70.5922 46.336 67.3069 45.76 64.2775 44.608C61.2909 43.456 58.6882 41.8347 56.4695 39.744C54.2935 37.6533 52.5869 35.2 51.3495 32.384C50.1549 29.568 49.5575 26.496 49.5575 23.168C49.5575 19.84 50.1549 16.768 51.3495 13.952C52.5869 11.136 54.3149 8.68267 56.5335 6.592C58.7522 4.50133 61.3549 2.88 64.3415 1.728C67.3282 0.575999 70.5709 0 74.0695 0C77.6109 0 80.8535 0.575999 83.7975 1.728C86.7842 2.88 89.3655 4.50133 91.5415 6.592C93.7602 8.68267 95.4882 11.136 96.7255 13.952C97.9629 16.7253 98.5815 19.7973 98.5815 23.168C98.5815 26.496 97.9629 29.5893 96.7255 32.448C95.4882 35.264 93.7602 37.7173 91.5415 39.808C89.3655 41.856 86.7842 43.456 83.7975 44.608C80.8535 45.76 77.6322 46.336 74.1335 46.336ZM74.0695 37.504C76.0749 37.504 77.9095 37.1627 79.5735 36.48C81.2802 35.7973 82.7735 34.816 84.0535 33.536C85.3335 32.256 86.3149 30.7413 86.9975 28.992C87.7229 27.2427 88.0855 25.3013 88.0855 23.168C88.0855 21.0347 87.7229 19.0933 86.9975 17.344C86.3149 15.5947 85.3335 14.08 84.0535 12.8C82.8162 11.52 81.3442 10.5387 79.6375 9.856C77.9309 9.17333 76.0749 8.832 74.0695 8.832C72.0642 8.832 70.2082 9.17333 68.5015 9.856C66.8375 10.5387 65.3655 11.52 64.0855 12.8C62.8055 14.08 61.8029 15.5947 61.0775 17.344C60.3949 19.0933 60.0535 21.0347 60.0535 23.168C60.0535 25.2587 60.3949 27.2 61.0775 28.992C61.8029 30.7413 62.7842 32.256 64.0215 33.536C65.3015 34.816 66.7949 35.7973 68.5015 36.48C70.2082 37.1627 72.0642 37.504 74.0695 37.504Z" fill="#F0F0F0"/>
<path d="M106.374 45.568V0.767998H125.766C129.776 0.767998 133.232 1.42933 136.134 2.752C139.035 4.032 141.275 5.888 142.854 8.32C144.432 10.752 145.222 13.6533 145.222 17.024C145.222 20.352 144.432 23.232 142.854 25.664C141.275 28.0533 139.035 29.888 136.134 31.168C133.232 32.448 129.776 33.088 125.766 33.088H112.134L116.742 28.544V45.568H106.374ZM134.854 45.568L123.654 29.312H134.726L146.054 45.568H134.854ZM116.742 29.696L112.134 24.832H125.19C128.39 24.832 130.779 24.1493 132.358 22.784C133.936 21.376 134.726 19.456 134.726 17.024C134.726 14.5493 133.936 12.6293 132.358 11.264C130.779 9.89867 128.39 9.216 125.19 9.216H112.134L116.742 4.288V29.696Z" fill="#F0F0F0"/>
<path d="M153.436 45.568V0.767998H162.012L181.084 32.384H176.54L195.292 0.767998H203.804L203.932 45.568H194.204L194.14 15.68H195.932L180.956 40.832H176.284L160.988 15.68H163.164V45.568H153.436Z" fill="#F0F0F0"/>
<path d="M229.281 46.336C225.697 46.336 222.262 45.8667 218.977 44.928C215.692 43.9467 213.046 42.688 211.041 41.152L214.561 33.344C216.481 34.7093 218.742 35.84 221.345 36.736C223.99 37.5893 226.657 38.016 229.345 38.016C231.393 38.016 233.036 37.824 234.273 37.44C235.553 37.0133 236.492 36.4373 237.089 35.712C237.686 34.9867 237.985 34.1547 237.985 33.216C237.985 32.0213 237.516 31.0827 236.577 30.4C235.638 29.6747 234.401 29.0987 232.865 28.672C231.329 28.2027 229.622 27.776 227.745 27.392C225.91 26.9653 224.054 26.4533 222.177 25.856C220.342 25.2587 218.657 24.4907 217.121 23.552C215.585 22.6133 214.326 21.376 213.345 19.84C212.406 18.304 211.937 16.3413 211.937 13.952C211.937 11.392 212.62 9.06667 213.985 6.976C215.393 4.84266 217.484 3.15733 220.257 1.92C223.073 0.639999 226.593 0 230.817 0C233.633 0 236.406 0.341333 239.137 1.024C241.868 1.664 244.278 2.64533 246.369 3.968L243.169 11.84C241.078 10.6453 238.988 9.77067 236.897 9.216C234.806 8.61867 232.758 8.32 230.753 8.32C228.748 8.32 227.105 8.55467 225.825 9.024C224.545 9.49333 223.628 10.112 223.073 10.88C222.518 11.6053 222.241 12.4587 222.241 13.44C222.241 14.592 222.71 15.5307 223.649 16.256C224.588 16.9387 225.825 17.4933 227.361 17.92C228.897 18.3467 230.582 18.7733 232.417 19.2C234.294 19.6267 236.15 20.1173 237.985 20.672C239.862 21.2267 241.569 21.9733 243.105 22.912C244.641 23.8507 245.878 25.088 246.817 26.624C247.798 28.16 248.289 30.1013 248.289 32.448C248.289 34.9653 247.585 37.2693 246.177 39.36C244.769 41.4507 242.657 43.136 239.841 44.416C237.068 45.696 233.548 46.336 229.281 46.336Z" fill="#F0F0F0"/>
</svg>
