<svg width="247" height="46" viewBox="0 0 247 46" fill="none" xmlns="http://www.w3.org/2000/svg">
<path d="M14.7418 45.1359V8.78394H0.405762V0.335938H39.4458V8.78394H25.1098V45.1359H14.7418Z" fill="#F0F0F0"/>
<path d="M75.7443 0.335938H86.1123V45.1359H75.7443V0.335938ZM55.3923 45.1359H45.0243V0.335938H55.3923V45.1359ZM76.5123 26.7679H54.6243V17.9999H76.5123V26.7679Z" fill="#F0F0F0"/>
<path d="M96.7118 45.1359V0.335938H116.104C120.114 0.335938 123.57 0.997271 126.472 2.31994C129.373 3.59994 131.613 5.45594 133.192 7.88794C134.77 10.3199 135.56 13.2213 135.56 16.5919C135.56 19.9199 134.77 22.7999 133.192 25.2319C131.613 27.6213 129.373 29.4559 126.472 30.7359C123.57 32.0159 120.114 32.6559 116.104 32.6559H102.472L107.08 28.1119V45.1359H96.7118ZM125.192 45.1359L113.992 28.8799H125.064L136.392 45.1359H125.192ZM107.08 29.2639L102.472 24.3999H115.528C118.728 24.3999 121.117 23.7173 122.696 22.3519C124.274 20.9439 125.064 19.0239 125.064 16.5919C125.064 14.1173 124.274 12.1973 122.696 10.8319C121.117 9.46661 118.728 8.78394 115.528 8.78394H102.472L107.08 3.85594V29.2639Z" fill="#F0F0F0"/>
<path d="M143.774 45.1359V0.335938H154.142V45.1359H143.774Z" fill="#F0F0F0"/>
<path d="M178.027 45.1359L158.699 0.335938H169.899L186.795 40.0159H180.203L197.355 0.335938H207.659L188.267 45.1359H178.027Z" fill="#F0F0F0"/>
<path d="M220.935 18.3839H242.503V26.4479H220.935V18.3839ZM221.703 36.8159H246.087V45.1359H211.399V0.335938H245.255V8.65594H221.703V36.8159Z" fill="#F0F0F0"/>
</svg>
