<svg width="347" height="59" viewBox="0 0 347 59" fill="none" xmlns="http://www.w3.org/2000/svg">
<g filter="url(#filter0_b_1_45)">
<mask id="path-1-outside-1_1_45" maskUnits="userSpaceOnUse" x="0.0874023" y="0.335938" width="347" height="58" fill="black">
<rect fill="white" x="0.0874023" y="0.335938" width="347" height="58"/>
<path d="M21.3754 47.6719C15.0181 47.6719 10.0474 45.9013 6.4634 42.3599C2.8794 38.8186 1.0874 33.7626 1.0874 27.1919V2.10394H11.4554V26.8079C11.4554 31.0746 12.3301 34.1466 14.0794 36.0239C15.8287 37.9013 18.2821 38.8399 21.4394 38.8399C24.5967 38.8399 27.0501 37.9013 28.7994 36.0239C30.5487 34.1466 31.4234 31.0746 31.4234 26.8079V2.10394H41.6634V27.1919C41.6634 33.7626 39.8714 38.8186 36.2874 42.3599C32.7034 45.9013 27.7327 47.6719 21.3754 47.6719Z"/>
<path d="M51.9089 46.9039V2.10394H60.4849L86.9169 34.3599H82.7569V2.10394H92.9969V46.9039H84.4849L57.9889 14.6479H62.1489V46.9039H51.9089Z"/>
<path d="M103.596 46.9039V2.10394H113.964V46.9039H103.596Z"/>
<path d="M146.292 47.6719C142.794 47.6719 139.53 47.0959 136.5 45.9439C133.514 44.7919 130.911 43.1706 128.692 41.0799C126.516 38.9893 124.81 36.5359 123.572 33.7199C122.378 30.9039 121.78 27.8319 121.78 24.5039C121.78 21.1759 122.378 18.1039 123.572 15.2879C124.81 12.4719 126.538 10.0186 128.756 7.92794C130.975 5.83727 133.578 4.21593 136.564 3.06393C139.551 1.91194 142.794 1.33594 146.292 1.33594C149.834 1.33594 153.076 1.91194 156.02 3.06393C159.007 4.21593 161.588 5.83727 163.764 7.92794C165.983 9.97594 167.711 12.4079 168.948 15.2239C170.186 18.0399 170.804 21.1333 170.804 24.5039C170.804 27.8319 170.186 30.9253 168.948 33.7839C167.711 36.5999 165.983 39.0533 163.764 41.1439C161.588 43.1919 159.007 44.7919 156.02 45.9439C153.076 47.0959 149.834 47.6719 146.292 47.6719ZM160.948 57.2079C159.199 57.2079 157.535 57.0159 155.956 56.6319C154.42 56.2479 152.884 55.6293 151.348 54.7759C149.855 53.9226 148.276 52.7706 146.612 51.3199C144.991 49.8693 143.22 48.0773 141.3 45.9439L152.18 43.1919C153.332 44.7706 154.399 46.0293 155.38 46.9679C156.362 47.9066 157.3 48.5679 158.196 48.9519C159.135 49.3359 160.116 49.5279 161.14 49.5279C163.871 49.5279 166.303 48.4186 168.436 46.1999L173.044 51.7039C170.015 55.3733 165.983 57.2079 160.948 57.2079ZM146.292 38.8399C148.298 38.8399 150.132 38.4986 151.796 37.8159C153.503 37.1333 154.996 36.1519 156.276 34.8719C157.556 33.5919 158.538 32.0773 159.22 30.3279C159.946 28.5359 160.308 26.5946 160.308 24.5039C160.308 22.3706 159.946 20.4293 159.22 18.6799C158.538 16.9306 157.556 15.4159 156.276 14.1359C154.996 12.8559 153.503 11.8746 151.796 11.1919C150.132 10.5093 148.298 10.1679 146.292 10.1679C144.287 10.1679 142.431 10.5093 140.724 11.1919C139.018 11.8746 137.524 12.8559 136.244 14.1359C135.007 15.4159 134.026 16.9306 133.3 18.6799C132.618 20.4293 132.276 22.3706 132.276 24.5039C132.276 26.5946 132.618 28.5359 133.3 30.3279C134.026 32.0773 135.007 33.5919 136.244 34.8719C137.524 36.1519 139.018 37.1333 140.724 37.8159C142.431 38.4986 144.287 38.8399 146.292 38.8399Z"/>
<path d="M198.5 47.6719C192.143 47.6719 187.172 45.9013 183.588 42.3599C180.004 38.8186 178.212 33.7626 178.212 27.1919V2.10394H188.58V26.8079C188.58 31.0746 189.455 34.1466 191.204 36.0239C192.954 37.9013 195.407 38.8399 198.564 38.8399C201.722 38.8399 204.175 37.9013 205.924 36.0239C207.674 34.1466 208.548 31.0746 208.548 26.8079V2.10394H218.788V27.1919C218.788 33.7626 216.996 38.8186 213.412 42.3599C209.828 45.9013 204.858 47.6719 198.5 47.6719Z"/>
<path d="M238.57 20.1519H260.138V28.2159H238.57V20.1519ZM239.338 38.5839H263.722V46.9039H229.034V2.10394H262.89V10.4239H239.338V38.5839Z"/>
<path d="M271.971 46.9039V2.10394H282.339V38.4559H304.803V46.9039H271.971Z"/>
<path d="M317.107 46.9039V28.5999L319.475 34.8719L299.763 2.10394H310.771L325.875 27.2559H319.539L334.707 2.10394H344.883L325.171 34.8719L327.475 28.5999V46.9039H317.107Z"/>
</mask>
<path d="M21.3754 47.6719C15.0181 47.6719 10.0474 45.9013 6.4634 42.3599C2.8794 38.8186 1.0874 33.7626 1.0874 27.1919V2.10394H11.4554V26.8079C11.4554 31.0746 12.3301 34.1466 14.0794 36.0239C15.8287 37.9013 18.2821 38.8399 21.4394 38.8399C24.5967 38.8399 27.0501 37.9013 28.7994 36.0239C30.5487 34.1466 31.4234 31.0746 31.4234 26.8079V2.10394H41.6634V27.1919C41.6634 33.7626 39.8714 38.8186 36.2874 42.3599C32.7034 45.9013 27.7327 47.6719 21.3754 47.6719Z" fill="#F0F0F0" fill-opacity="0.05"/>
<path d="M51.9089 46.9039V2.10394H60.4849L86.9169 34.3599H82.7569V2.10394H92.9969V46.9039H84.4849L57.9889 14.6479H62.1489V46.9039H51.9089Z" fill="#F0F0F0" fill-opacity="0.05"/>
<path d="M103.596 46.9039V2.10394H113.964V46.9039H103.596Z" fill="#F0F0F0" fill-opacity="0.05"/>
<path d="M146.292 47.6719C142.794 47.6719 139.53 47.0959 136.5 45.9439C133.514 44.7919 130.911 43.1706 128.692 41.0799C126.516 38.9893 124.81 36.5359 123.572 33.7199C122.378 30.9039 121.78 27.8319 121.78 24.5039C121.78 21.1759 122.378 18.1039 123.572 15.2879C124.81 12.4719 126.538 10.0186 128.756 7.92794C130.975 5.83727 133.578 4.21593 136.564 3.06393C139.551 1.91194 142.794 1.33594 146.292 1.33594C149.834 1.33594 153.076 1.91194 156.02 3.06393C159.007 4.21593 161.588 5.83727 163.764 7.92794C165.983 9.97594 167.711 12.4079 168.948 15.2239C170.186 18.0399 170.804 21.1333 170.804 24.5039C170.804 27.8319 170.186 30.9253 168.948 33.7839C167.711 36.5999 165.983 39.0533 163.764 41.1439C161.588 43.1919 159.007 44.7919 156.02 45.9439C153.076 47.0959 149.834 47.6719 146.292 47.6719ZM160.948 57.2079C159.199 57.2079 157.535 57.0159 155.956 56.6319C154.42 56.2479 152.884 55.6293 151.348 54.7759C149.855 53.9226 148.276 52.7706 146.612 51.3199C144.991 49.8693 143.22 48.0773 141.3 45.9439L152.18 43.1919C153.332 44.7706 154.399 46.0293 155.38 46.9679C156.362 47.9066 157.3 48.5679 158.196 48.9519C159.135 49.3359 160.116 49.5279 161.14 49.5279C163.871 49.5279 166.303 48.4186 168.436 46.1999L173.044 51.7039C170.015 55.3733 165.983 57.2079 160.948 57.2079ZM146.292 38.8399C148.298 38.8399 150.132 38.4986 151.796 37.8159C153.503 37.1333 154.996 36.1519 156.276 34.8719C157.556 33.5919 158.538 32.0773 159.22 30.3279C159.946 28.5359 160.308 26.5946 160.308 24.5039C160.308 22.3706 159.946 20.4293 159.22 18.6799C158.538 16.9306 157.556 15.4159 156.276 14.1359C154.996 12.8559 153.503 11.8746 151.796 11.1919C150.132 10.5093 148.298 10.1679 146.292 10.1679C144.287 10.1679 142.431 10.5093 140.724 11.1919C139.018 11.8746 137.524 12.8559 136.244 14.1359C135.007 15.4159 134.026 16.9306 133.3 18.6799C132.618 20.4293 132.276 22.3706 132.276 24.5039C132.276 26.5946 132.618 28.5359 133.3 30.3279C134.026 32.0773 135.007 33.5919 136.244 34.8719C137.524 36.1519 139.018 37.1333 140.724 37.8159C142.431 38.4986 144.287 38.8399 146.292 38.8399Z" fill="#F0F0F0" fill-opacity="0.05"/>
<path d="M198.5 47.6719C192.143 47.6719 187.172 45.9013 183.588 42.3599C180.004 38.8186 178.212 33.7626 178.212 27.1919V2.10394H188.58V26.8079C188.58 31.0746 189.455 34.1466 191.204 36.0239C192.954 37.9013 195.407 38.8399 198.564 38.8399C201.722 38.8399 204.175 37.9013 205.924 36.0239C207.674 34.1466 208.548 31.0746 208.548 26.8079V2.10394H218.788V27.1919C218.788 33.7626 216.996 38.8186 213.412 42.3599C209.828 45.9013 204.858 47.6719 198.5 47.6719Z" fill="#F0F0F0" fill-opacity="0.05"/>
<path d="M238.57 20.1519H260.138V28.2159H238.57V20.1519ZM239.338 38.5839H263.722V46.9039H229.034V2.10394H262.89V10.4239H239.338V38.5839Z" fill="#F0F0F0" fill-opacity="0.05"/>
<path d="M271.971 46.9039V2.10394H282.339V38.4559H304.803V46.9039H271.971Z" fill="#F0F0F0" fill-opacity="0.05"/>
<path d="M317.107 46.9039V28.5999L319.475 34.8719L299.763 2.10394H310.771L325.875 27.2559H319.539L334.707 2.10394H344.883L325.171 34.8719L327.475 28.5999V46.9039H317.107Z" fill="#F0F0F0" fill-opacity="0.05"/>
<path d="M21.3754 47.6719C15.0181 47.6719 10.0474 45.9013 6.4634 42.3599C2.8794 38.8186 1.0874 33.7626 1.0874 27.1919V2.10394H11.4554V26.8079C11.4554 31.0746 12.3301 34.1466 14.0794 36.0239C15.8287 37.9013 18.2821 38.8399 21.4394 38.8399C24.5967 38.8399 27.0501 37.9013 28.7994 36.0239C30.5487 34.1466 31.4234 31.0746 31.4234 26.8079V2.10394H41.6634V27.1919C41.6634 33.7626 39.8714 38.8186 36.2874 42.3599C32.7034 45.9013 27.7327 47.6719 21.3754 47.6719Z" stroke="url(#paint0_linear_1_45)" stroke-width="2" mask="url(#path-1-outside-1_1_45)"/>
<path d="M51.9089 46.9039V2.10394H60.4849L86.9169 34.3599H82.7569V2.10394H92.9969V46.9039H84.4849L57.9889 14.6479H62.1489V46.9039H51.9089Z" stroke="url(#paint1_linear_1_45)" stroke-width="2" mask="url(#path-1-outside-1_1_45)"/>
<path d="M103.596 46.9039V2.10394H113.964V46.9039H103.596Z" stroke="url(#paint2_linear_1_45)" stroke-width="2" mask="url(#path-1-outside-1_1_45)"/>
<path d="M146.292 47.6719C142.794 47.6719 139.53 47.0959 136.5 45.9439C133.514 44.7919 130.911 43.1706 128.692 41.0799C126.516 38.9893 124.81 36.5359 123.572 33.7199C122.378 30.9039 121.78 27.8319 121.78 24.5039C121.78 21.1759 122.378 18.1039 123.572 15.2879C124.81 12.4719 126.538 10.0186 128.756 7.92794C130.975 5.83727 133.578 4.21593 136.564 3.06393C139.551 1.91194 142.794 1.33594 146.292 1.33594C149.834 1.33594 153.076 1.91194 156.02 3.06393C159.007 4.21593 161.588 5.83727 163.764 7.92794C165.983 9.97594 167.711 12.4079 168.948 15.2239C170.186 18.0399 170.804 21.1333 170.804 24.5039C170.804 27.8319 170.186 30.9253 168.948 33.7839C167.711 36.5999 165.983 39.0533 163.764 41.1439C161.588 43.1919 159.007 44.7919 156.02 45.9439C153.076 47.0959 149.834 47.6719 146.292 47.6719ZM160.948 57.2079C159.199 57.2079 157.535 57.0159 155.956 56.6319C154.42 56.2479 152.884 55.6293 151.348 54.7759C149.855 53.9226 148.276 52.7706 146.612 51.3199C144.991 49.8693 143.22 48.0773 141.3 45.9439L152.18 43.1919C153.332 44.7706 154.399 46.0293 155.38 46.9679C156.362 47.9066 157.3 48.5679 158.196 48.9519C159.135 49.3359 160.116 49.5279 161.14 49.5279C163.871 49.5279 166.303 48.4186 168.436 46.1999L173.044 51.7039C170.015 55.3733 165.983 57.2079 160.948 57.2079ZM146.292 38.8399C148.298 38.8399 150.132 38.4986 151.796 37.8159C153.503 37.1333 154.996 36.1519 156.276 34.8719C157.556 33.5919 158.538 32.0773 159.22 30.3279C159.946 28.5359 160.308 26.5946 160.308 24.5039C160.308 22.3706 159.946 20.4293 159.22 18.6799C158.538 16.9306 157.556 15.4159 156.276 14.1359C154.996 12.8559 153.503 11.8746 151.796 11.1919C150.132 10.5093 148.298 10.1679 146.292 10.1679C144.287 10.1679 142.431 10.5093 140.724 11.1919C139.018 11.8746 137.524 12.8559 136.244 14.1359C135.007 15.4159 134.026 16.9306 133.3 18.6799C132.618 20.4293 132.276 22.3706 132.276 24.5039C132.276 26.5946 132.618 28.5359 133.3 30.3279C134.026 32.0773 135.007 33.5919 136.244 34.8719C137.524 36.1519 139.018 37.1333 140.724 37.8159C142.431 38.4986 144.287 38.8399 146.292 38.8399Z" stroke="url(#paint3_linear_1_45)" stroke-width="2" mask="url(#path-1-outside-1_1_45)"/>
<path d="M198.5 47.6719C192.143 47.6719 187.172 45.9013 183.588 42.3599C180.004 38.8186 178.212 33.7626 178.212 27.1919V2.10394H188.58V26.8079C188.58 31.0746 189.455 34.1466 191.204 36.0239C192.954 37.9013 195.407 38.8399 198.564 38.8399C201.722 38.8399 204.175 37.9013 205.924 36.0239C207.674 34.1466 208.548 31.0746 208.548 26.8079V2.10394H218.788V27.1919C218.788 33.7626 216.996 38.8186 213.412 42.3599C209.828 45.9013 204.858 47.6719 198.5 47.6719Z" stroke="url(#paint4_linear_1_45)" stroke-width="2" mask="url(#path-1-outside-1_1_45)"/>
<path d="M238.57 20.1519H260.138V28.2159H238.57V20.1519ZM239.338 38.5839H263.722V46.9039H229.034V2.10394H262.89V10.4239H239.338V38.5839Z" stroke="url(#paint5_linear_1_45)" stroke-width="2" mask="url(#path-1-outside-1_1_45)"/>
<path d="M271.971 46.9039V2.10394H282.339V38.4559H304.803V46.9039H271.971Z" stroke="url(#paint6_linear_1_45)" stroke-width="2" mask="url(#path-1-outside-1_1_45)"/>
<path d="M317.107 46.9039V28.5999L319.475 34.8719L299.763 2.10394H310.771L325.875 27.2559H319.539L334.707 2.10394H344.883L325.171 34.8719L327.475 28.5999V46.9039H317.107Z" stroke="url(#paint7_linear_1_45)" stroke-width="2" mask="url(#path-1-outside-1_1_45)"/>
</g>
<defs>
<filter id="filter0_b_1_45" x="-1.9126" y="-1.66406" width="350.564" height="61.8721" filterUnits="userSpaceOnUse" color-interpolation-filters="sRGB">
<feFlood flood-opacity="0" result="BackgroundImageFix"/>
<feGaussianBlur in="BackgroundImageFix" stdDeviation="1"/>
<feComposite in2="SourceAlpha" operator="in" result="effect1_backgroundBlur_1_45"/>
<feBlend mode="normal" in="SourceGraphic" in2="effect1_backgroundBlur_1_45" result="shape"/>
</filter>
<linearGradient id="paint0_linear_1_45" x1="172.985" y1="1.33594" x2="172.985" y2="57.2079" gradientUnits="userSpaceOnUse">
<stop stop-color="#F0F0F0"/>
<stop offset="1" stop-color="#F0F0F0" stop-opacity="0"/>
</linearGradient>
<linearGradient id="paint1_linear_1_45" x1="172.985" y1="1.33594" x2="172.985" y2="57.2079" gradientUnits="userSpaceOnUse">
<stop stop-color="#F0F0F0"/>
<stop offset="1" stop-color="#F0F0F0" stop-opacity="0"/>
</linearGradient>
<linearGradient id="paint2_linear_1_45" x1="172.985" y1="1.33594" x2="172.985" y2="57.2079" gradientUnits="userSpaceOnUse">
<stop stop-color="#F0F0F0"/>
<stop offset="1" stop-color="#F0F0F0" stop-opacity="0"/>
</linearGradient>
<linearGradient id="paint3_linear_1_45" x1="172.985" y1="1.33594" x2="172.985" y2="57.2079" gradientUnits="userSpaceOnUse">
<stop stop-color="#F0F0F0"/>
<stop offset="1" stop-color="#F0F0F0" stop-opacity="0"/>
</linearGradient>
<linearGradient id="paint4_linear_1_45" x1="172.985" y1="1.33594" x2="172.985" y2="57.2079" gradientUnits="userSpaceOnUse">
<stop stop-color="#F0F0F0"/>
<stop offset="1" stop-color="#F0F0F0" stop-opacity="0"/>
</linearGradient>
<linearGradient id="paint5_linear_1_45" x1="172.985" y1="1.33594" x2="172.985" y2="57.2079" gradientUnits="userSpaceOnUse">
<stop stop-color="#F0F0F0"/>
<stop offset="1" stop-color="#F0F0F0" stop-opacity="0"/>
</linearGradient>
<linearGradient id="paint6_linear_1_45" x1="172.985" y1="1.33594" x2="172.985" y2="57.2079" gradientUnits="userSpaceOnUse">
<stop stop-color="#F0F0F0"/>
<stop offset="1" stop-color="#F0F0F0" stop-opacity="0"/>
</linearGradient>
<linearGradient id="paint7_linear_1_45" x1="172.985" y1="1.33594" x2="172.985" y2="57.2079" gradientUnits="userSpaceOnUse">
<stop stop-color="#F0F0F0"/>
<stop offset="1" stop-color="#F0F0F0" stop-opacity="0"/>
</linearGradient>
</defs>
</svg>
