<svg width="104" height="24" viewBox="0 0 104 24" fill="none" xmlns="http://www.w3.org/2000/svg">
<g clip-path="url(#clip0_1_134)">
<mask id="mask0_1_134" style="mask-type:luminance" maskUnits="userSpaceOnUse" x="0" y="0" width="24" height="24">
<path d="M24 0H0V24H24V0Z" fill="white"/>
</mask>
<g mask="url(#mask0_1_134)">
<path d="M12.7192 8.01407C12.7249 16.7796 12.7333 16.2422 12.5636 16.9776C12.1337 18.8415 10.8863 19.9616 9.24299 19.9616C8.25018 19.9616 7.29981 19.56 6.56723 18.8331C5.82333 18.092 5.48674 17.1784 5.54048 16.0555C5.56311 15.6086 5.64231 15.2833 5.82616 14.8986C5.99587 14.5422 6.17124 14.3046 6.46257 14.0303C7.11879 13.4193 8.12573 12.995 9.65877 12.6867L10.0604 12.6047V10.588V8.57129L9.85111 8.57977C7.7552 8.66746 5.80353 9.33498 4.41757 10.4409C4.12907 10.67 3.57185 11.2272 3.34274 11.5129C2.48005 12.5877 1.96527 13.8323 1.75596 15.3568C1.70505 15.7161 1.70505 16.8503 1.75596 17.2434C1.99072 19.1329 2.78836 20.7536 4.10927 22.0264C5.15015 23.0305 6.38621 23.6556 7.80328 23.8961C8.40575 24.0007 9.41552 24.0007 10.0321 23.8961C11.568 23.6387 12.9568 22.9372 14.0797 21.8482C15.5703 20.4029 16.4274 18.5417 16.7017 16.146C16.7244 15.9423 16.7385 14.5847 16.747 11.8495L16.7611 7.85002L17.0807 8.0367C18.3564 8.77777 19.5048 9.23316 20.5287 9.40287C20.9077 9.46509 21.5385 9.50186 21.9458 9.48489L22.2823 9.47075V7.54454V5.61551H22.1692C21.9684 5.61551 21.2782 5.50237 20.936 5.41186C19.5727 5.05547 18.5487 4.354 17.8218 3.27351C17.2646 2.44477 16.8856 1.39539 16.7272 0.232878L16.6904 -0.0273438H14.702H12.7135L12.7192 8.01407Z" fill="white"/>
</g>
</g>
<g clip-path="url(#clip1_1_134)">
<path fill-rule="evenodd" clip-rule="evenodd" d="M56 3H48C45.2386 3 43 5.23858 43 8V16C43 18.7614 45.2386 21 48 21H56C58.7614 21 61 18.7614 61 16V8C61 5.23858 58.7614 3 56 3ZM59.25 16C59.2445 17.7926 57.7926 19.2445 56 19.25H48C46.2074 19.2445 44.7555 17.7926 44.75 16V8C44.7555 6.20735 46.2074 4.75549 48 4.75H56C57.7926 4.75549 59.2445 6.20735 59.25 8V16ZM56.75 8.25C57.3023 8.25 57.75 7.80228 57.75 7.25C57.75 6.69772 57.3023 6.25 56.75 6.25C56.1977 6.25 55.75 6.69772 55.75 7.25C55.75 7.80228 56.1977 8.25 56.75 8.25ZM52 7.5C49.5147 7.5 47.5 9.51472 47.5 12C47.5 14.4853 49.5147 16.5 52 16.5C54.4853 16.5 56.5 14.4853 56.5 12C56.5027 10.8057 56.0294 9.65957 55.1849 8.81508C54.3404 7.97059 53.1943 7.49734 52 7.5ZM49.25 12C49.25 13.5188 50.4812 14.75 52 14.75C53.5188 14.75 54.75 13.5188 54.75 12C54.75 10.4812 53.5188 9.25 52 9.25C50.4812 9.25 49.25 10.4812 49.25 12Z" fill="white"/>
</g>
<g clip-path="url(#clip2_1_134)">
<path d="M100.973 6.7174C100.508 7.33692 99.9469 7.87733 99.3102 8.31776C99.3102 8.47959 99.3102 8.64142 99.3102 8.81225C99.3153 11.7511 98.1414 14.5691 96.0517 16.6345C93.9619 18.6999 91.1311 19.8399 88.1939 19.7989C86.4959 19.8046 84.8196 19.4169 83.2963 18.6661C83.2142 18.6302 83.1612 18.549 83.1615 18.4593V18.3604C83.1615 18.2313 83.2661 18.1267 83.3952 18.1267C85.0643 18.0716 86.6739 17.4929 87.9962 16.4724C86.4854 16.4419 85.1261 15.5469 84.5005 14.1707C84.4689 14.0956 84.4787 14.0093 84.5264 13.9432C84.5742 13.8771 84.6529 13.8407 84.7341 13.8471C85.1933 13.8932 85.6571 13.8505 86.1001 13.7212C84.4323 13.375 83.1791 11.9904 82.9997 10.2957C82.9934 10.2144 83.0298 10.1357 83.0959 10.0879C83.1619 10.0402 83.2481 10.0303 83.3233 10.062C83.7708 10.2595 84.254 10.3635 84.7431 10.3676C83.2817 9.40846 82.6505 7.58405 83.2064 5.92622C83.2638 5.76513 83.4017 5.64612 83.5694 5.61294C83.7371 5.57975 83.9098 5.63728 84.0242 5.76439C85.9963 7.86325 88.7059 9.11396 91.5818 9.25279C91.5082 8.95885 91.472 8.65676 91.474 8.35372C91.5009 6.76472 92.4841 5.34921 93.9633 4.76987C95.4424 4.19054 97.1248 4.56203 98.2229 5.71044C98.9713 5.56785 99.6949 5.31645 100.371 4.96421C100.42 4.93331 100.483 4.93331 100.532 4.96421C100.563 5.01373 100.563 5.07652 100.532 5.12604C100.205 5.87552 99.6522 6.50412 98.9508 6.92419C99.565 6.85296 100.168 6.70807 100.748 6.49264C100.797 6.45942 100.861 6.45942 100.91 6.49264C100.951 6.51134 100.981 6.54711 100.993 6.59042C101.005 6.63373 100.998 6.68018 100.973 6.7174Z" fill="white"/>
</g>
<defs>
<clipPath id="clip0_1_134">
<rect width="24" height="24" fill="white"/>
</clipPath>
<clipPath id="clip1_1_134">
<rect width="24" height="24" fill="white" transform="translate(40)"/>
</clipPath>
<clipPath id="clip2_1_134">
<rect width="24" height="24" fill="white" transform="translate(80)"/>
</clipPath>
</defs>
</svg>
