<svg width="77" height="77" viewBox="0 0 77 77" fill="none" xmlns="http://www.w3.org/2000/svg">
<g filter="url(#filter0_d_1_81)">
<g filter="url(#filter1_i_1_81)">
<path d="M64.75 32.375C64.75 45.1466 54.3966 55.5 41.625 55.5C28.8534 55.5 18.5 45.1466 18.5 32.375C18.5 19.6034 28.8534 9.25 41.625 9.25C54.3966 9.25 64.75 19.6034 64.75 32.375Z" fill="url(#paint0_linear_1_81)"/>
</g>
<g filter="url(#filter2_bii_1_81)">
<path fill-rule="evenodd" clip-rule="evenodd" d="M32.375 64.75C45.1466 64.75 55.5 54.3966 55.5 41.625C55.5 28.8534 45.1466 18.5 32.375 18.5C19.6034 18.5 9.25 28.8534 9.25 41.625C9.25 54.3966 19.6034 64.75 32.375 64.75ZM18.5 36.0169C18.5 31.4585 22.2085 27.75 26.7669 27.75H37.9831C42.5415 27.75 46.25 31.4585 46.25 36.0169V47.2331C46.25 51.7915 42.5415 55.5 37.9831 55.5H26.7669C22.2085 55.5 18.5 51.7915 18.5 47.2331V36.0169ZM37.9831 52.7084C41.007 52.7084 43.4584 50.257 43.4584 47.2331V36.0169C43.4584 32.993 41.007 30.5416 37.9831 30.5416H26.7669C23.743 30.5416 21.2916 32.993 21.2916 36.0169V47.2331C21.2916 50.257 23.743 52.7084 26.7669 52.7084H37.9831ZM41.2858 34.5018C41.2858 35.4516 40.5159 36.2215 39.566 36.2215C38.6162 36.2215 37.8463 35.4516 37.8463 34.5018C37.8463 33.5519 38.6162 32.782 39.566 32.782C40.5159 32.782 41.2858 33.5519 41.2858 34.5018ZM32.375 34.4479C28.4175 34.4479 25.1979 37.6675 25.1979 41.6249C25.1979 45.5824 28.4175 48.8021 32.375 48.8021C36.3325 48.8021 39.5521 45.5824 39.5521 41.6249C39.5521 37.6675 36.3325 34.4479 32.375 34.4479ZM32.375 46.0105C29.9529 46.0105 27.9895 44.0471 27.9895 41.625C27.9895 39.2029 29.953 37.2395 32.375 37.2395C34.7971 37.2395 36.7605 39.2029 36.7605 41.625C36.7605 44.047 34.797 46.0105 32.375 46.0105Z" fill="white" fill-opacity="0.4"/>
</g>
</g>
<defs>
<filter id="filter0_d_1_81" x="5.25" y="5.25" width="71.5" height="71.5" filterUnits="userSpaceOnUse" color-interpolation-filters="sRGB">
<feFlood flood-opacity="0" result="BackgroundImageFix"/>
<feColorMatrix in="SourceAlpha" type="matrix" values="0 0 0 0 0 0 0 0 0 0 0 0 0 0 0 0 0 0 127 0" result="hardAlpha"/>
<feOffset dx="4" dy="4"/>
<feGaussianBlur stdDeviation="4"/>
<feColorMatrix type="matrix" values="0 0 0 0 0.991667 0 0 0 0 0.501783 0 0 0 0 0.347083 0 0 0 0.4 0"/>
<feBlend mode="normal" in2="BackgroundImageFix" result="effect1_dropShadow_1_81"/>
<feBlend mode="normal" in="SourceGraphic" in2="effect1_dropShadow_1_81" result="shape"/>
</filter>
<filter id="filter1_i_1_81" x="18.5" y="9.25" width="46.25" height="46.25" filterUnits="userSpaceOnUse" color-interpolation-filters="sRGB">
<feFlood flood-opacity="0" result="BackgroundImageFix"/>
<feBlend mode="normal" in="SourceGraphic" in2="BackgroundImageFix" result="shape"/>
<feColorMatrix in="SourceAlpha" type="matrix" values="0 0 0 0 0 0 0 0 0 0 0 0 0 0 0 0 0 0 127 0" result="hardAlpha"/>
<feOffset/>
<feGaussianBlur stdDeviation="4"/>
<feComposite in2="hardAlpha" operator="arithmetic" k2="-1" k3="1"/>
<feColorMatrix type="matrix" values="0 0 0 0 1 0 0 0 0 1 0 0 0 0 1 0 0 0 0.8 0"/>
<feBlend mode="normal" in2="shape" result="effect1_innerShadow_1_81"/>
</filter>
<filter id="filter2_bii_1_81" x="5.25" y="14.5" width="54.25" height="54.25" filterUnits="userSpaceOnUse" color-interpolation-filters="sRGB">
<feFlood flood-opacity="0" result="BackgroundImageFix"/>
<feGaussianBlur in="BackgroundImageFix" stdDeviation="2"/>
<feComposite in2="SourceAlpha" operator="in" result="effect1_backgroundBlur_1_81"/>
<feBlend mode="normal" in="SourceGraphic" in2="effect1_backgroundBlur_1_81" result="shape"/>
<feColorMatrix in="SourceAlpha" type="matrix" values="0 0 0 0 0 0 0 0 0 0 0 0 0 0 0 0 0 0 127 0" result="hardAlpha"/>
<feOffset/>
<feGaussianBlur stdDeviation="2"/>
<feComposite in2="hardAlpha" operator="arithmetic" k2="-1" k3="1"/>
<feColorMatrix type="matrix" values="0 0 0 0 1 0 0 0 0 1 0 0 0 0 1 0 0 0 1 0"/>
<feBlend mode="normal" in2="shape" result="effect2_innerShadow_1_81"/>
<feColorMatrix in="SourceAlpha" type="matrix" values="0 0 0 0 0 0 0 0 0 0 0 0 0 0 0 0 0 0 127 0" result="hardAlpha"/>
<feOffset dy="4"/>
<feGaussianBlur stdDeviation="4"/>
<feComposite in2="hardAlpha" operator="arithmetic" k2="-1" k3="1"/>
<feColorMatrix type="matrix" values="0 0 0 0 1 0 0 0 0 1 0 0 0 0 1 0 0 0 1 0"/>
<feBlend mode="normal" in2="effect2_innerShadow_1_81" result="effect3_innerShadow_1_81"/>
</filter>
<linearGradient id="paint0_linear_1_81" x1="41.625" y1="55.3654" x2="41.625" y2="9.60923" gradientUnits="userSpaceOnUse">
<stop stop-color="#E09B3D"/>
<stop offset="0.3" stop-color="#C74C4D"/>
<stop offset="0.6" stop-color="#C21975"/>
<stop offset="1" stop-color="#7024C4"/>
</linearGradient>
</defs>
</svg>
