<svg width="77" height="77" viewBox="0 0 77 77" fill="none" xmlns="http://www.w3.org/2000/svg">
<g filter="url(#filter0_d_1_82)">
<g filter="url(#filter1_i_1_82)">
<path d="M64.75 32.375C64.75 45.1466 54.3966 55.5 41.625 55.5C28.8534 55.5 18.5 45.1466 18.5 32.375C18.5 19.6034 28.8534 9.25 41.625 9.25C54.3966 9.25 64.75 19.6034 64.75 32.375Z" fill="#55ACEE"/>
</g>
<g filter="url(#filter2_bii_1_82)">
<path fill-rule="evenodd" clip-rule="evenodd" d="M32.375 18.5C19.6034 18.5 9.25 28.8534 9.25 41.625C9.25 54.3966 19.6034 64.75 32.375 64.75C45.1466 64.75 55.5 54.3966 55.5 41.625C55.5 28.8534 45.1466 18.5 32.375 18.5ZM32.0344 37.2144L31.9742 36.2141C31.7938 33.6217 33.3778 31.2539 35.8841 30.3353C36.8065 30.0087 38.3704 29.9679 39.393 30.2536C39.7941 30.3761 40.556 30.7844 41.0974 31.1518L42.0799 31.8254L43.1626 31.4784C43.7641 31.2947 44.5662 30.9885 44.9271 30.7844C45.268 30.6007 45.5687 30.4986 45.5687 30.5598C45.5687 30.9068 44.8268 32.0908 44.2053 32.744C43.3631 33.6626 43.6037 33.7442 45.3081 33.1318C46.3307 32.7848 46.3507 32.7848 46.1502 33.1727C46.0299 33.3768 45.4083 34.0912 44.7466 34.7444C43.6238 35.8671 43.5636 35.9896 43.5636 36.9286C43.5636 38.3779 42.8819 41.399 42.2002 43.0524C40.937 46.1551 38.2301 49.3599 35.5232 50.9725C31.7135 53.2383 26.6407 53.8099 22.3698 52.4831C20.9462 52.034 18.5 50.8909 18.5 50.6867C18.5 50.6255 19.2419 50.5438 20.1442 50.5234C22.029 50.4826 23.9137 49.9519 25.5178 49.0129L26.6006 48.3597L25.3574 47.931C23.5929 47.3186 22.0089 45.9102 21.6079 44.5833C21.4876 44.1547 21.5277 44.1343 22.6505 44.1343L23.8135 44.1139L22.831 43.6444C21.668 43.0524 20.6053 42.0522 20.084 41.0315C19.7031 40.2967 19.2218 38.4391 19.3622 38.2962C19.4023 38.235 19.8234 38.3575 20.3046 38.5208C21.6881 39.0311 21.8686 38.9086 21.0665 38.0513C19.5627 36.4999 19.1015 34.1933 19.8234 32.0091L20.1642 31.0293L21.4876 32.3562C24.1945 35.0302 27.3826 36.6224 31.0318 37.0919L32.0344 37.2144Z" fill="white" fill-opacity="0.4"/>
</g>
</g>
<defs>
<filter id="filter0_d_1_82" x="5.25" y="5.25" width="71.5" height="71.5" filterUnits="userSpaceOnUse" color-interpolation-filters="sRGB">
<feFlood flood-opacity="0" result="BackgroundImageFix"/>
<feColorMatrix in="SourceAlpha" type="matrix" values="0 0 0 0 0 0 0 0 0 0 0 0 0 0 0 0 0 0 127 0" result="hardAlpha"/>
<feOffset dx="4" dy="4"/>
<feGaussianBlur stdDeviation="4"/>
<feColorMatrix type="matrix" values="0 0 0 0 0.333333 0 0 0 0 0.67451 0 0 0 0 0.933333 0 0 0 0.4 0"/>
<feBlend mode="normal" in2="BackgroundImageFix" result="effect1_dropShadow_1_82"/>
<feBlend mode="normal" in="SourceGraphic" in2="effect1_dropShadow_1_82" result="shape"/>
</filter>
<filter id="filter1_i_1_82" x="18.5" y="9.25" width="46.25" height="46.25" filterUnits="userSpaceOnUse" color-interpolation-filters="sRGB">
<feFlood flood-opacity="0" result="BackgroundImageFix"/>
<feBlend mode="normal" in="SourceGraphic" in2="BackgroundImageFix" result="shape"/>
<feColorMatrix in="SourceAlpha" type="matrix" values="0 0 0 0 0 0 0 0 0 0 0 0 0 0 0 0 0 0 127 0" result="hardAlpha"/>
<feOffset/>
<feGaussianBlur stdDeviation="4"/>
<feComposite in2="hardAlpha" operator="arithmetic" k2="-1" k3="1"/>
<feColorMatrix type="matrix" values="0 0 0 0 1 0 0 0 0 1 0 0 0 0 1 0 0 0 0.8 0"/>
<feBlend mode="normal" in2="shape" result="effect1_innerShadow_1_82"/>
</filter>
<filter id="filter2_bii_1_82" x="5.25" y="14.5" width="54.25" height="54.25" filterUnits="userSpaceOnUse" color-interpolation-filters="sRGB">
<feFlood flood-opacity="0" result="BackgroundImageFix"/>
<feGaussianBlur in="BackgroundImageFix" stdDeviation="2"/>
<feComposite in2="SourceAlpha" operator="in" result="effect1_backgroundBlur_1_82"/>
<feBlend mode="normal" in="SourceGraphic" in2="effect1_backgroundBlur_1_82" result="shape"/>
<feColorMatrix in="SourceAlpha" type="matrix" values="0 0 0 0 0 0 0 0 0 0 0 0 0 0 0 0 0 0 127 0" result="hardAlpha"/>
<feOffset/>
<feGaussianBlur stdDeviation="2"/>
<feComposite in2="hardAlpha" operator="arithmetic" k2="-1" k3="1"/>
<feColorMatrix type="matrix" values="0 0 0 0 1 0 0 0 0 1 0 0 0 0 1 0 0 0 1 0"/>
<feBlend mode="normal" in2="shape" result="effect2_innerShadow_1_82"/>
<feColorMatrix in="SourceAlpha" type="matrix" values="0 0 0 0 0 0 0 0 0 0 0 0 0 0 0 0 0 0 127 0" result="hardAlpha"/>
<feOffset dy="4"/>
<feGaussianBlur stdDeviation="4"/>
<feComposite in2="hardAlpha" operator="arithmetic" k2="-1" k3="1"/>
<feColorMatrix type="matrix" values="0 0 0 0 1 0 0 0 0 1 0 0 0 0 1 0 0 0 1 0"/>
<feBlend mode="normal" in2="effect2_innerShadow_1_82" result="effect3_innerShadow_1_82"/>
</filter>
</defs>
</svg>
