<svg width="234" height="47" viewBox="0 0 234 47" fill="none" xmlns="http://www.w3.org/2000/svg">
<g filter="url(#filter0_b_1_39)">
<path d="M1 45.8V1H22.888C28.52 1 32.744 2.06667 35.56 4.2C38.4187 6.33333 39.848 9.14933 39.848 12.648C39.848 14.9947 39.272 17.0427 38.12 18.792C36.968 20.4987 35.3893 21.8213 33.384 22.76C31.3787 23.6987 29.0747 24.168 26.472 24.168L27.688 21.544C30.504 21.544 33 22.0133 35.176 22.952C37.352 23.848 39.0373 25.192 40.232 26.984C41.4693 28.776 42.088 30.9733 42.088 33.576C42.088 37.416 40.5733 40.424 37.544 42.6C34.5147 44.7333 30.056 45.8 24.168 45.8H1ZM11.304 37.992H23.4C26.088 37.992 28.1147 37.5653 29.48 36.712C30.888 35.816 31.592 34.408 31.592 32.488C31.592 30.6107 30.888 29.224 29.48 28.328C28.1147 27.3893 26.088 26.92 23.4 26.92H10.536V19.368H21.608C24.1253 19.368 26.0453 18.9413 27.368 18.088C28.7333 17.192 29.416 15.848 29.416 14.056C29.416 12.3067 28.7333 11.0053 27.368 10.152C26.0453 9.256 24.1253 8.808 21.608 8.808H11.304V37.992Z" fill="#F0F0F0" fill-opacity="0.05"/>
<path d="M49.9375 45.8V1H69.3295C73.3402 1 76.7962 1.66133 79.6975 2.984C82.5988 4.264 84.8388 6.12 86.4175 8.552C87.9962 10.984 88.7855 13.8853 88.7855 17.256C88.7855 20.584 87.9962 23.464 86.4175 25.896C84.8388 28.2853 82.5988 30.12 79.6975 31.4C76.7962 32.68 73.3402 33.32 69.3295 33.32H55.6975L60.3055 28.776V45.8H49.9375ZM78.4175 45.8L67.2175 29.544H78.2895L89.6175 45.8H78.4175ZM60.3055 29.928L55.6975 25.064H68.7535C71.9535 25.064 74.3428 24.3813 75.9215 23.016C77.5002 21.608 78.2895 19.688 78.2895 17.256C78.2895 14.7813 77.5002 12.8613 75.9215 11.496C74.3428 10.1307 71.9535 9.448 68.7535 9.448H55.6975L60.3055 4.52V29.928Z" fill="#F0F0F0" fill-opacity="0.05"/>
<path d="M106.536 19.048H128.104V27.112H106.536V19.048ZM107.304 37.48H131.688V45.8H97V1H130.856V9.32H107.304V37.48Z" fill="#F0F0F0" fill-opacity="0.05"/>
<path d="M134.049 45.8L154.018 1H164.258L184.29 45.8H173.41L157.025 6.248H161.122L144.673 45.8H134.049ZM144.033 36.2L146.786 28.328H169.826L172.642 36.2H144.033Z" fill="#F0F0F0" fill-opacity="0.05"/>
<path d="M198.217 35.56L197.641 23.592L219.081 1H230.602L211.273 21.8L205.514 27.944L198.217 35.56ZM188.938 45.8V1H199.242V45.8H188.938ZM219.594 45.8L203.658 26.28L210.441 18.92L231.689 45.8H219.594Z" fill="#F0F0F0" fill-opacity="0.05"/>
<path d="M0.5 45.8V46.3H1H24.168C30.1031 46.3 34.6819 45.2271 37.8319 43.0088L37.8357 43.0061C41.0003 40.7329 42.588 37.5714 42.588 33.576C42.588 30.8936 41.9497 28.5932 40.6457 26.7031C39.3916 24.8236 37.626 23.4208 35.3702 22.4912C35.2848 22.4544 35.1989 22.4183 35.1126 22.3829C36.4949 21.5039 37.6376 20.4004 38.5344 19.0717L38.5345 19.0718L38.5376 19.067C39.7497 17.2264 40.348 15.0802 40.348 12.648C40.348 8.98856 38.8418 6.02583 35.8606 3.80041C32.9196 1.5731 28.568 0.5 22.888 0.5H1H0.5V1V45.8ZM23.4 37.492H11.804V27.42H23.4C26.0443 27.42 27.952 27.8843 29.1967 28.74L29.2041 28.7451L29.2116 28.7498C30.4553 29.5413 31.092 30.7564 31.092 32.488C31.092 34.2663 30.4522 35.4998 29.2135 36.2889C27.9645 37.0689 26.0492 37.492 23.4 37.492ZM21.608 18.868H11.804V9.308H21.608C24.0784 9.308 25.8828 9.7498 27.0876 10.566L27.0952 10.5711L27.103 10.576C28.3076 11.3289 28.916 12.4612 28.916 14.056C28.916 15.6982 28.3032 16.8755 27.0953 17.6689C25.8885 18.4468 24.0806 18.868 21.608 18.868ZM49.4375 45.8V46.3H49.9375H60.3055H60.8055V45.8V33.82H69.3295C69.4052 33.82 69.4806 33.8198 69.5559 33.8193L78.0058 46.0837L78.1548 46.3H78.4175H89.6175H90.5753L90.0277 45.5141L80.3634 31.6455C83.1204 30.3425 85.2836 28.5193 86.8347 26.1716L86.8369 26.1682C88.4756 23.6437 89.2855 20.666 89.2855 17.256C89.2855 13.8048 88.4763 10.8053 86.8369 8.27977C85.2008 5.75934 82.8824 3.84316 79.9021 2.52777C76.9217 1.16966 73.3926 0.5 69.3295 0.5H49.9375H49.4375V1V45.8ZM68.7535 24.564H60.8055V9.948H68.7535C71.8948 9.948 74.1442 10.62 75.5944 11.8742C77.0427 13.1267 77.7895 14.8969 77.7895 17.256C77.7895 19.5675 77.0456 21.342 75.5916 22.6403C74.1413 23.8929 71.8928 24.564 68.7535 24.564ZM107.804 36.98V27.612H128.104H128.604V27.112V19.048V18.548H128.104H107.804V9.82H130.856H131.356V9.32V1V0.5H130.856H97H96.5V1V45.8V46.3H97H131.688H132.188V45.8V37.48V36.98H131.688H107.804ZM133.593 45.5965L133.279 46.3H134.049H144.673H145.007L145.135 45.992L148.999 36.7H169.099L172.948 45.9914L173.075 46.3H173.41H184.29H185.061L184.746 45.5959L164.714 0.795903L164.582 0.5H164.258H154.018H153.693L153.561 0.796447L133.593 45.5965ZM159.069 12.4867L165.424 27.828H152.689L159.069 12.4867ZM199.742 20.6528V1V0.5H199.242H188.938H188.438V1V45.8V46.3H188.938H199.242H199.742V45.8V34.6919L205.215 28.9784L219.206 46.1162L219.356 46.3H219.594H231.689H232.722L232.082 45.4899L212.712 20.9863L230.968 1.34036L231.749 0.5H230.602H219.081H218.867L218.719 0.655814L199.742 20.6528Z" stroke="url(#paint0_linear_1_39)"/>
</g>
<defs>
<filter id="filter0_b_1_39" x="-4" y="-4" width="241.755" height="54.8" filterUnits="userSpaceOnUse" color-interpolation-filters="sRGB">
<feFlood flood-opacity="0" result="BackgroundImageFix"/>
<feGaussianBlur in="BackgroundImageFix" stdDeviation="2"/>
<feComposite in2="SourceAlpha" operator="in" result="effect1_backgroundBlur_1_39"/>
<feBlend mode="normal" in="SourceGraphic" in2="effect1_backgroundBlur_1_39" result="shape"/>
</filter>
<linearGradient id="paint0_linear_1_39" x1="116.345" y1="1" x2="116.345" y2="45.8" gradientUnits="userSpaceOnUse">
<stop stop-color="#F0F0F0"/>
<stop offset="1" stop-color="#F0F0F0" stop-opacity="0"/>
</linearGradient>
</defs>
</svg>
