<svg width="287" height="55" viewBox="0 0 287 55" fill="none" xmlns="http://www.w3.org/2000/svg">
<path d="M0 54.0884L23.7304 0.9116H35.8998L59.7062 54.0884H46.7762L27.3051 7.14088H32.1729L12.6258 54.0884H0ZM11.8652 42.6934L15.1357 33.3494H42.5169L45.8635 42.6934H11.8652Z" fill="#F0F0F0"/>
<path d="M65.23 54.0884V0.9116H91.2422C97.9354 0.9116 102.955 2.17771 106.302 4.70994C109.699 7.24217 111.398 10.5847 111.398 14.7376C111.398 17.523 110.713 19.954 109.344 22.0304C107.975 24.0562 106.099 25.6262 103.716 26.7403C101.333 27.8545 98.5945 28.4116 95.5015 28.4116L96.9466 25.297C100.293 25.297 103.259 25.8541 105.845 26.9682C108.431 28.0318 110.434 29.6271 111.854 31.7541C113.325 33.8812 114.06 36.4894 114.06 39.5787C114.06 44.1367 112.26 47.7072 108.66 50.2901C105.06 52.8223 99.7608 54.0884 92.7634 54.0884H65.23ZM77.4755 44.8204H91.8506C95.0451 44.8204 97.4537 44.314 99.0762 43.3011C100.75 42.2376 101.586 40.5663 101.586 38.2873C101.586 36.0589 100.75 34.413 99.0762 33.3494C97.4537 32.2353 95.0451 31.6782 91.8506 31.6782H76.5628V22.7141H89.721C92.7126 22.7141 94.9944 22.2076 96.5663 21.1948C98.1889 20.1312 99.0002 18.5359 99.0002 16.4088C99.0002 14.3324 98.1889 12.7878 96.5663 11.7749C94.9944 10.7113 92.7126 10.1796 89.721 10.1796H77.4755V44.8204Z" fill="#F0F0F0"/>
<path d="M149.248 55C145.04 55 141.135 54.3163 137.535 52.9489C133.986 51.5815 130.893 49.657 128.256 47.1754C125.67 44.6938 123.642 41.7818 122.171 38.4392C120.752 35.0967 120.042 31.4503 120.042 27.5C120.042 23.5497 120.752 19.9033 122.171 16.5608C123.642 13.2182 125.695 10.3062 128.332 7.82458C130.969 5.343 134.062 3.41851 137.611 2.0511C141.161 0.6837 145.014 0 149.172 0C153.381 0 157.235 0.6837 160.733 2.0511C164.283 3.41851 167.35 5.343 169.936 7.82458C172.573 10.3062 174.627 13.2182 176.097 16.5608C177.568 19.8527 178.303 23.4991 178.303 27.5C178.303 31.4503 177.568 35.122 176.097 38.5152C174.627 41.8577 172.573 44.7698 169.936 47.2514C167.35 49.6823 164.283 51.5815 160.733 52.9489C157.235 54.3163 153.406 55 149.248 55ZM149.172 44.5166C151.556 44.5166 153.736 44.1114 155.713 43.3011C157.742 42.4908 159.516 41.326 161.038 39.8066C162.559 38.2873 163.725 36.4894 164.536 34.413C165.398 32.3366 165.829 30.0322 165.829 27.5C165.829 24.9678 165.398 22.6634 164.536 20.587C163.725 18.5106 162.559 16.7127 161.038 15.1934C159.567 13.674 157.818 12.5092 155.789 11.6989C153.761 10.8886 151.556 10.4834 149.172 10.4834C146.789 10.4834 144.583 10.8886 142.555 11.6989C140.578 12.5092 138.828 13.674 137.307 15.1934C135.786 16.7127 134.594 18.5106 133.732 20.587C132.921 22.6634 132.515 24.9678 132.515 27.5C132.515 29.9816 132.921 32.2859 133.732 34.413C134.594 36.4894 135.761 38.2873 137.231 39.8066C138.752 41.326 140.527 42.4908 142.555 43.3011C144.583 44.1114 146.789 44.5166 149.172 44.5166Z" fill="#F0F0F0"/>
<path d="M211.217 55C203.662 55 197.755 52.8983 193.496 48.6948C189.236 44.4913 187.107 38.4899 187.107 30.6906V0.9116H199.428V30.2348C199.428 35.2993 200.468 38.9457 202.547 41.174C204.626 43.4024 207.541 44.5166 211.293 44.5166C215.046 44.5166 217.961 43.4024 220.04 41.174C222.119 38.9457 223.159 35.2993 223.159 30.2348V0.9116H235.328V30.6906C235.328 38.4899 233.198 44.4913 228.939 48.6948C224.68 52.8983 218.773 55 211.217 55Z" fill="#F0F0F0"/>
<path d="M257.641 54.0884V10.9392H240.604V0.9116H287V10.9392H269.963V54.0884H257.641Z" fill="#F0F0F0"/>
</svg>
