<svg width="531" height="57" viewBox="0 0 531 57" fill="none" xmlns="http://www.w3.org/2000/svg">
<g filter="url(#filter0_b_1_62)">
<mask id="path-1-outside-1_1_62" maskUnits="userSpaceOnUse" x="0" y="0" width="531" height="57" fill="black">
<rect fill="white" width="531" height="57"/>
<path d="M30.278 56C26.0591 56 22.1452 55.3163 18.5363 53.9489C14.9782 52.5815 11.8776 50.657 9.23443 48.1754C6.64211 45.6938 4.60892 42.7818 3.13485 39.4392C1.71162 36.0967 1 32.4503 1 28.5C1 24.5497 1.71162 20.9033 3.13485 17.5608C4.60892 14.2182 6.66752 11.3062 9.31067 8.82458C11.9538 6.343 15.0544 4.41851 18.6125 3.0511C22.1706 1.6837 26.0337 1 30.2017 1C34.4206 1 38.2837 1.6837 41.7909 3.0511C45.349 4.41851 48.4242 6.343 51.0165 8.82458C53.6597 11.3062 55.7183 14.2182 57.1923 17.5608C58.6664 20.8527 59.4034 24.4991 59.4034 28.5C59.4034 32.4503 58.6664 36.122 57.1923 39.5152C55.7183 42.8577 53.6597 45.7698 51.0165 48.2514C48.4242 50.6823 45.349 52.5815 41.7909 53.9489C38.2837 55.3163 34.446 56 30.278 56ZM30.2017 45.5166C32.5907 45.5166 34.7764 45.1114 36.7588 44.3011C38.792 43.4908 40.571 42.326 42.0959 40.8066C43.6208 39.2873 44.7899 37.4894 45.6031 35.413C46.4673 33.3366 46.8993 31.0322 46.8993 28.5C46.8993 25.9678 46.4673 23.6634 45.6031 21.587C44.7899 19.5106 43.6208 17.7127 42.0959 16.1934C40.6218 14.674 38.8682 13.5092 36.835 12.6989C34.8018 11.8886 32.5907 11.4834 30.2017 11.4834C27.8127 11.4834 25.6016 11.8886 23.5684 12.6989C21.5861 13.5092 19.8324 14.674 18.3075 16.1934C16.7827 17.7127 15.5882 19.5106 14.724 21.587C13.9108 23.6634 13.5041 25.9678 13.5041 28.5C13.5041 30.9816 13.9108 33.2859 14.724 35.413C15.5882 37.4894 16.7572 39.2873 18.2313 40.8066C19.7562 42.326 21.5352 43.4908 23.5684 44.3011C25.6016 45.1114 27.8127 45.5166 30.2017 45.5166Z"/>
<path d="M92.3983 56C84.8247 56 78.903 53.8983 74.6333 49.6948C70.3636 45.4913 68.2288 39.4899 68.2288 31.6906V1.9116H80.5804V31.2348C80.5804 36.2993 81.6224 39.9457 83.7064 42.174C85.7905 44.4024 88.7132 45.5166 92.4746 45.5166C96.236 45.5166 99.1587 44.4024 101.243 42.174C103.327 39.9457 104.369 36.2993 104.369 31.2348V1.9116H116.568V31.6906C116.568 39.4899 114.433 45.4913 110.163 49.6948C105.894 53.8983 99.972 56 92.3983 56Z"/>
<path d="M138.936 55.0884V11.9392H121.857V1.9116H168.366V11.9392H151.287V55.0884H138.936Z"/>
<path d="M199.809 56C195.692 56 191.854 55.3416 188.296 54.0249C184.789 52.6575 181.739 50.733 179.147 48.2514C176.555 45.7698 174.521 42.8577 173.047 39.5152C171.624 36.1727 170.913 32.5009 170.913 28.5C170.913 24.4991 171.624 20.8273 173.047 17.4848C174.521 14.1423 176.555 11.2302 179.147 8.74862C181.79 6.26703 184.865 4.36786 188.373 3.0511C191.88 1.6837 195.717 1 199.885 1C204.511 1 208.679 1.81031 212.39 3.43094C216.151 5.00092 219.302 7.33057 221.844 10.4199L213.915 17.7127C212.085 15.6363 210.051 14.0916 207.815 13.0787C205.578 12.0152 203.139 11.4834 200.495 11.4834C198.005 11.4834 195.717 11.8886 193.633 12.6989C191.549 13.5092 189.745 14.674 188.22 16.1934C186.695 17.7127 185.501 19.5106 184.637 21.587C183.823 23.6634 183.417 25.9678 183.417 28.5C183.417 31.0322 183.823 33.3366 184.637 35.413C185.501 37.4894 186.695 39.2873 188.22 40.8066C189.745 42.326 191.549 43.4908 193.633 44.3011C195.717 45.1114 198.005 45.5166 200.495 45.5166C203.139 45.5166 205.578 45.0101 207.815 43.9972C210.051 42.9337 212.085 41.3384 213.915 39.2113L221.844 46.5041C219.302 49.5935 216.151 51.9484 212.39 53.5691C208.679 55.1897 204.486 56 199.809 56Z"/>
<path d="M222.203 55.0884L245.991 1.9116H258.19L282.055 55.0884H269.093L249.574 8.14088H254.454L234.859 55.0884H222.203ZM234.097 43.6934L237.375 34.3494H264.823L268.178 43.6934H234.097Z"/>
<path d="M305.128 56C300.858 56 296.767 55.4429 292.853 54.3287C288.939 53.1639 285.787 51.6699 283.398 49.8467L287.592 40.5787C289.879 42.1994 292.573 43.5414 295.674 44.605C298.825 45.6179 302.002 46.1243 305.204 46.1243C307.644 46.1243 309.601 45.8964 311.075 45.4406C312.6 44.9342 313.718 44.2505 314.43 43.3895C315.142 42.5285 315.497 41.541 315.497 40.4268C315.497 39.0088 314.938 37.8946 313.82 37.0843C312.702 36.2233 311.228 35.5396 309.398 35.0332C307.568 34.4761 305.535 33.9696 303.298 33.5138C301.113 33.0074 298.902 32.3996 296.665 31.6906C294.479 30.9816 292.472 30.07 290.642 28.9558C288.812 27.8416 287.312 26.3729 286.143 24.5497C285.025 22.7265 284.466 20.3969 284.466 17.5608C284.466 14.5221 285.279 11.762 286.906 9.28039C288.583 6.74816 291.074 4.7477 294.378 3.279C297.732 1.75967 301.926 1 306.958 1C310.313 1 313.617 1.40516 316.87 2.21547C320.123 2.97514 322.995 4.13996 325.486 5.70994L321.673 15.0539C319.183 13.6358 316.692 12.5976 314.201 11.9392C311.711 11.2302 309.271 10.8757 306.882 10.8757C304.493 10.8757 302.536 11.1542 301.011 11.7113C299.486 12.2684 298.393 13.0028 297.732 13.9144C297.072 14.7753 296.741 15.7882 296.741 16.953C296.741 18.3204 297.3 19.4346 298.419 20.2956C299.537 21.1059 301.011 21.7643 302.841 22.2707C304.671 22.7772 306.678 23.2836 308.864 23.7901C311.101 24.2965 313.312 24.8789 315.497 25.5373C317.734 26.1957 319.767 27.082 321.597 28.1961C323.427 29.3103 324.901 30.779 326.019 32.6022C327.188 34.4254 327.773 36.7297 327.773 39.5152C327.773 42.5032 326.934 45.238 325.257 47.7196C323.579 50.2012 321.063 52.2017 317.709 53.721C314.405 55.2403 310.211 56 305.128 56Z"/>
<path d="M346.524 55.0884V11.9392H329.445V1.9116H375.954V11.9392H358.875V55.0884H346.524Z"/>
<path d="M393.96 23.3343H419.655V32.9061H393.96V23.3343ZM394.875 45.2127H423.925V55.0884H382.6V1.9116H422.933V11.7873H394.875V45.2127Z"/>
<path d="M433.752 55.0884V1.9116H456.855C461.633 1.9116 465.75 2.69659 469.206 4.26657C472.663 5.78591 475.331 7.98895 477.212 10.8757C479.093 13.7624 480.033 17.2063 480.033 21.2072C480.033 25.1575 479.093 28.576 477.212 31.4627C475.331 34.2988 472.663 36.4765 469.206 37.9959C465.75 39.5152 461.633 40.2749 456.855 40.2749H440.614L446.104 34.8812V55.0884H433.752ZM467.681 55.0884L454.338 35.7928H467.529L481.024 55.0884H467.681ZM446.104 36.2486L440.614 30.4751H456.168C459.981 30.4751 462.827 29.6648 464.708 28.0442C466.588 26.3729 467.529 24.0939 467.529 21.2072C467.529 18.2698 466.588 15.9908 464.708 14.3702C462.827 12.7495 459.981 11.9392 456.168 11.9392H440.614L446.104 6.08978V36.2486Z"/>
<path d="M507.355 56C503.086 56 498.994 55.4429 495.08 54.3287C491.166 53.1639 488.015 51.6699 485.626 49.8467L489.819 40.5787C492.106 42.1994 494.8 43.5414 497.901 44.605C501.052 45.6179 504.229 46.1243 507.432 46.1243C509.871 46.1243 511.828 45.8964 513.302 45.4406C514.827 44.9342 515.946 44.2505 516.657 43.3895C517.369 42.5285 517.725 41.541 517.725 40.4268C517.725 39.0088 517.165 37.8946 516.047 37.0843C514.929 36.2233 513.455 35.5396 511.625 35.0332C509.795 34.4761 507.762 33.9696 505.525 33.5138C503.34 33.0074 501.129 32.3996 498.892 31.6906C496.707 30.9816 494.699 30.07 492.869 28.9558C491.039 27.8416 489.54 26.3729 488.37 24.5497C487.252 22.7265 486.693 20.3969 486.693 17.5608C486.693 14.5221 487.506 11.762 489.133 9.28039C490.81 6.74816 493.301 4.7477 496.605 3.279C499.96 1.75967 504.153 1 509.185 1C512.54 1 515.844 1.40516 519.097 2.21547C522.35 2.97514 525.222 4.13996 527.713 5.70994L523.9 15.0539C521.41 13.6358 518.919 12.5976 516.428 11.9392C513.938 11.2302 511.498 10.8757 509.109 10.8757C506.72 10.8757 504.763 11.1542 503.238 11.7113C501.713 12.2684 500.62 13.0028 499.96 13.9144C499.299 14.7753 498.968 15.7882 498.968 16.953C498.968 18.3204 499.528 19.4346 500.646 20.2956C501.764 21.1059 503.238 21.7643 505.068 22.2707C506.898 22.7772 508.906 23.2836 511.091 23.7901C513.328 24.2965 515.539 24.8789 517.725 25.5373C519.961 26.1957 521.994 27.082 523.824 28.1961C525.654 29.3103 527.128 30.779 528.246 32.6022C529.415 34.4254 530 36.7297 530 39.5152C530 42.5032 529.161 45.238 527.484 47.7196C525.807 50.2012 523.29 52.2017 519.936 53.721C516.632 55.2403 512.438 56 507.355 56Z"/>
</mask>
<path d="M30.278 56C26.0591 56 22.1452 55.3163 18.5363 53.9489C14.9782 52.5815 11.8776 50.657 9.23443 48.1754C6.64211 45.6938 4.60892 42.7818 3.13485 39.4392C1.71162 36.0967 1 32.4503 1 28.5C1 24.5497 1.71162 20.9033 3.13485 17.5608C4.60892 14.2182 6.66752 11.3062 9.31067 8.82458C11.9538 6.343 15.0544 4.41851 18.6125 3.0511C22.1706 1.6837 26.0337 1 30.2017 1C34.4206 1 38.2837 1.6837 41.7909 3.0511C45.349 4.41851 48.4242 6.343 51.0165 8.82458C53.6597 11.3062 55.7183 14.2182 57.1923 17.5608C58.6664 20.8527 59.4034 24.4991 59.4034 28.5C59.4034 32.4503 58.6664 36.122 57.1923 39.5152C55.7183 42.8577 53.6597 45.7698 51.0165 48.2514C48.4242 50.6823 45.349 52.5815 41.7909 53.9489C38.2837 55.3163 34.446 56 30.278 56ZM30.2017 45.5166C32.5907 45.5166 34.7764 45.1114 36.7588 44.3011C38.792 43.4908 40.571 42.326 42.0959 40.8066C43.6208 39.2873 44.7899 37.4894 45.6031 35.413C46.4673 33.3366 46.8993 31.0322 46.8993 28.5C46.8993 25.9678 46.4673 23.6634 45.6031 21.587C44.7899 19.5106 43.6208 17.7127 42.0959 16.1934C40.6218 14.674 38.8682 13.5092 36.835 12.6989C34.8018 11.8886 32.5907 11.4834 30.2017 11.4834C27.8127 11.4834 25.6016 11.8886 23.5684 12.6989C21.5861 13.5092 19.8324 14.674 18.3075 16.1934C16.7827 17.7127 15.5882 19.5106 14.724 21.587C13.9108 23.6634 13.5041 25.9678 13.5041 28.5C13.5041 30.9816 13.9108 33.2859 14.724 35.413C15.5882 37.4894 16.7572 39.2873 18.2313 40.8066C19.7562 42.326 21.5352 43.4908 23.5684 44.3011C25.6016 45.1114 27.8127 45.5166 30.2017 45.5166Z" fill="#F0F0F0" fill-opacity="0.05"/>
<path d="M92.3983 56C84.8247 56 78.903 53.8983 74.6333 49.6948C70.3636 45.4913 68.2288 39.4899 68.2288 31.6906V1.9116H80.5804V31.2348C80.5804 36.2993 81.6224 39.9457 83.7064 42.174C85.7905 44.4024 88.7132 45.5166 92.4746 45.5166C96.236 45.5166 99.1587 44.4024 101.243 42.174C103.327 39.9457 104.369 36.2993 104.369 31.2348V1.9116H116.568V31.6906C116.568 39.4899 114.433 45.4913 110.163 49.6948C105.894 53.8983 99.972 56 92.3983 56Z" fill="#F0F0F0" fill-opacity="0.05"/>
<path d="M138.936 55.0884V11.9392H121.857V1.9116H168.366V11.9392H151.287V55.0884H138.936Z" fill="#F0F0F0" fill-opacity="0.05"/>
<path d="M199.809 56C195.692 56 191.854 55.3416 188.296 54.0249C184.789 52.6575 181.739 50.733 179.147 48.2514C176.555 45.7698 174.521 42.8577 173.047 39.5152C171.624 36.1727 170.913 32.5009 170.913 28.5C170.913 24.4991 171.624 20.8273 173.047 17.4848C174.521 14.1423 176.555 11.2302 179.147 8.74862C181.79 6.26703 184.865 4.36786 188.373 3.0511C191.88 1.6837 195.717 1 199.885 1C204.511 1 208.679 1.81031 212.39 3.43094C216.151 5.00092 219.302 7.33057 221.844 10.4199L213.915 17.7127C212.085 15.6363 210.051 14.0916 207.815 13.0787C205.578 12.0152 203.139 11.4834 200.495 11.4834C198.005 11.4834 195.717 11.8886 193.633 12.6989C191.549 13.5092 189.745 14.674 188.22 16.1934C186.695 17.7127 185.501 19.5106 184.637 21.587C183.823 23.6634 183.417 25.9678 183.417 28.5C183.417 31.0322 183.823 33.3366 184.637 35.413C185.501 37.4894 186.695 39.2873 188.22 40.8066C189.745 42.326 191.549 43.4908 193.633 44.3011C195.717 45.1114 198.005 45.5166 200.495 45.5166C203.139 45.5166 205.578 45.0101 207.815 43.9972C210.051 42.9337 212.085 41.3384 213.915 39.2113L221.844 46.5041C219.302 49.5935 216.151 51.9484 212.39 53.5691C208.679 55.1897 204.486 56 199.809 56Z" fill="#F0F0F0" fill-opacity="0.05"/>
<path d="M222.203 55.0884L245.991 1.9116H258.19L282.055 55.0884H269.093L249.574 8.14088H254.454L234.859 55.0884H222.203ZM234.097 43.6934L237.375 34.3494H264.823L268.178 43.6934H234.097Z" fill="#F0F0F0" fill-opacity="0.05"/>
<path d="M305.128 56C300.858 56 296.767 55.4429 292.853 54.3287C288.939 53.1639 285.787 51.6699 283.398 49.8467L287.592 40.5787C289.879 42.1994 292.573 43.5414 295.674 44.605C298.825 45.6179 302.002 46.1243 305.204 46.1243C307.644 46.1243 309.601 45.8964 311.075 45.4406C312.6 44.9342 313.718 44.2505 314.43 43.3895C315.142 42.5285 315.497 41.541 315.497 40.4268C315.497 39.0088 314.938 37.8946 313.82 37.0843C312.702 36.2233 311.228 35.5396 309.398 35.0332C307.568 34.4761 305.535 33.9696 303.298 33.5138C301.113 33.0074 298.902 32.3996 296.665 31.6906C294.479 30.9816 292.472 30.07 290.642 28.9558C288.812 27.8416 287.312 26.3729 286.143 24.5497C285.025 22.7265 284.466 20.3969 284.466 17.5608C284.466 14.5221 285.279 11.762 286.906 9.28039C288.583 6.74816 291.074 4.7477 294.378 3.279C297.732 1.75967 301.926 1 306.958 1C310.313 1 313.617 1.40516 316.87 2.21547C320.123 2.97514 322.995 4.13996 325.486 5.70994L321.673 15.0539C319.183 13.6358 316.692 12.5976 314.201 11.9392C311.711 11.2302 309.271 10.8757 306.882 10.8757C304.493 10.8757 302.536 11.1542 301.011 11.7113C299.486 12.2684 298.393 13.0028 297.732 13.9144C297.072 14.7753 296.741 15.7882 296.741 16.953C296.741 18.3204 297.3 19.4346 298.419 20.2956C299.537 21.1059 301.011 21.7643 302.841 22.2707C304.671 22.7772 306.678 23.2836 308.864 23.7901C311.101 24.2965 313.312 24.8789 315.497 25.5373C317.734 26.1957 319.767 27.082 321.597 28.1961C323.427 29.3103 324.901 30.779 326.019 32.6022C327.188 34.4254 327.773 36.7297 327.773 39.5152C327.773 42.5032 326.934 45.238 325.257 47.7196C323.579 50.2012 321.063 52.2017 317.709 53.721C314.405 55.2403 310.211 56 305.128 56Z" fill="#F0F0F0" fill-opacity="0.05"/>
<path d="M346.524 55.0884V11.9392H329.445V1.9116H375.954V11.9392H358.875V55.0884H346.524Z" fill="#F0F0F0" fill-opacity="0.05"/>
<path d="M393.96 23.3343H419.655V32.9061H393.96V23.3343ZM394.875 45.2127H423.925V55.0884H382.6V1.9116H422.933V11.7873H394.875V45.2127Z" fill="#F0F0F0" fill-opacity="0.05"/>
<path d="M433.752 55.0884V1.9116H456.855C461.633 1.9116 465.75 2.69659 469.206 4.26657C472.663 5.78591 475.331 7.98895 477.212 10.8757C479.093 13.7624 480.033 17.2063 480.033 21.2072C480.033 25.1575 479.093 28.576 477.212 31.4627C475.331 34.2988 472.663 36.4765 469.206 37.9959C465.75 39.5152 461.633 40.2749 456.855 40.2749H440.614L446.104 34.8812V55.0884H433.752ZM467.681 55.0884L454.338 35.7928H467.529L481.024 55.0884H467.681ZM446.104 36.2486L440.614 30.4751H456.168C459.981 30.4751 462.827 29.6648 464.708 28.0442C466.588 26.3729 467.529 24.0939 467.529 21.2072C467.529 18.2698 466.588 15.9908 464.708 14.3702C462.827 12.7495 459.981 11.9392 456.168 11.9392H440.614L446.104 6.08978V36.2486Z" fill="#F0F0F0" fill-opacity="0.05"/>
<path d="M507.355 56C503.086 56 498.994 55.4429 495.08 54.3287C491.166 53.1639 488.015 51.6699 485.626 49.8467L489.819 40.5787C492.106 42.1994 494.8 43.5414 497.901 44.605C501.052 45.6179 504.229 46.1243 507.432 46.1243C509.871 46.1243 511.828 45.8964 513.302 45.4406C514.827 44.9342 515.946 44.2505 516.657 43.3895C517.369 42.5285 517.725 41.541 517.725 40.4268C517.725 39.0088 517.165 37.8946 516.047 37.0843C514.929 36.2233 513.455 35.5396 511.625 35.0332C509.795 34.4761 507.762 33.9696 505.525 33.5138C503.34 33.0074 501.129 32.3996 498.892 31.6906C496.707 30.9816 494.699 30.07 492.869 28.9558C491.039 27.8416 489.54 26.3729 488.37 24.5497C487.252 22.7265 486.693 20.3969 486.693 17.5608C486.693 14.5221 487.506 11.762 489.133 9.28039C490.81 6.74816 493.301 4.7477 496.605 3.279C499.96 1.75967 504.153 1 509.185 1C512.54 1 515.844 1.40516 519.097 2.21547C522.35 2.97514 525.222 4.13996 527.713 5.70994L523.9 15.0539C521.41 13.6358 518.919 12.5976 516.428 11.9392C513.938 11.2302 511.498 10.8757 509.109 10.8757C506.72 10.8757 504.763 11.1542 503.238 11.7113C501.713 12.2684 500.62 13.0028 499.96 13.9144C499.299 14.7753 498.968 15.7882 498.968 16.953C498.968 18.3204 499.528 19.4346 500.646 20.2956C501.764 21.1059 503.238 21.7643 505.068 22.2707C506.898 22.7772 508.906 23.2836 511.091 23.7901C513.328 24.2965 515.539 24.8789 517.725 25.5373C519.961 26.1957 521.994 27.082 523.824 28.1961C525.654 29.3103 527.128 30.779 528.246 32.6022C529.415 34.4254 530 36.7297 530 39.5152C530 42.5032 529.161 45.238 527.484 47.7196C525.807 50.2012 523.29 52.2017 519.936 53.721C516.632 55.2403 512.438 56 507.355 56Z" fill="#F0F0F0" fill-opacity="0.05"/>
<path d="M30.278 56C26.0591 56 22.1452 55.3163 18.5363 53.9489C14.9782 52.5815 11.8776 50.657 9.23443 48.1754C6.64211 45.6938 4.60892 42.7818 3.13485 39.4392C1.71162 36.0967 1 32.4503 1 28.5C1 24.5497 1.71162 20.9033 3.13485 17.5608C4.60892 14.2182 6.66752 11.3062 9.31067 8.82458C11.9538 6.343 15.0544 4.41851 18.6125 3.0511C22.1706 1.6837 26.0337 1 30.2017 1C34.4206 1 38.2837 1.6837 41.7909 3.0511C45.349 4.41851 48.4242 6.343 51.0165 8.82458C53.6597 11.3062 55.7183 14.2182 57.1923 17.5608C58.6664 20.8527 59.4034 24.4991 59.4034 28.5C59.4034 32.4503 58.6664 36.122 57.1923 39.5152C55.7183 42.8577 53.6597 45.7698 51.0165 48.2514C48.4242 50.6823 45.349 52.5815 41.7909 53.9489C38.2837 55.3163 34.446 56 30.278 56ZM30.2017 45.5166C32.5907 45.5166 34.7764 45.1114 36.7588 44.3011C38.792 43.4908 40.571 42.326 42.0959 40.8066C43.6208 39.2873 44.7899 37.4894 45.6031 35.413C46.4673 33.3366 46.8993 31.0322 46.8993 28.5C46.8993 25.9678 46.4673 23.6634 45.6031 21.587C44.7899 19.5106 43.6208 17.7127 42.0959 16.1934C40.6218 14.674 38.8682 13.5092 36.835 12.6989C34.8018 11.8886 32.5907 11.4834 30.2017 11.4834C27.8127 11.4834 25.6016 11.8886 23.5684 12.6989C21.5861 13.5092 19.8324 14.674 18.3075 16.1934C16.7827 17.7127 15.5882 19.5106 14.724 21.587C13.9108 23.6634 13.5041 25.9678 13.5041 28.5C13.5041 30.9816 13.9108 33.2859 14.724 35.413C15.5882 37.4894 16.7572 39.2873 18.2313 40.8066C19.7562 42.326 21.5352 43.4908 23.5684 44.3011C25.6016 45.1114 27.8127 45.5166 30.2017 45.5166Z" stroke="url(#paint0_linear_1_62)" stroke-width="2" mask="url(#path-1-outside-1_1_62)"/>
<path d="M92.3983 56C84.8247 56 78.903 53.8983 74.6333 49.6948C70.3636 45.4913 68.2288 39.4899 68.2288 31.6906V1.9116H80.5804V31.2348C80.5804 36.2993 81.6224 39.9457 83.7064 42.174C85.7905 44.4024 88.7132 45.5166 92.4746 45.5166C96.236 45.5166 99.1587 44.4024 101.243 42.174C103.327 39.9457 104.369 36.2993 104.369 31.2348V1.9116H116.568V31.6906C116.568 39.4899 114.433 45.4913 110.163 49.6948C105.894 53.8983 99.972 56 92.3983 56Z" stroke="url(#paint1_linear_1_62)" stroke-width="2" mask="url(#path-1-outside-1_1_62)"/>
<path d="M138.936 55.0884V11.9392H121.857V1.9116H168.366V11.9392H151.287V55.0884H138.936Z" stroke="url(#paint2_linear_1_62)" stroke-width="2" mask="url(#path-1-outside-1_1_62)"/>
<path d="M199.809 56C195.692 56 191.854 55.3416 188.296 54.0249C184.789 52.6575 181.739 50.733 179.147 48.2514C176.555 45.7698 174.521 42.8577 173.047 39.5152C171.624 36.1727 170.913 32.5009 170.913 28.5C170.913 24.4991 171.624 20.8273 173.047 17.4848C174.521 14.1423 176.555 11.2302 179.147 8.74862C181.79 6.26703 184.865 4.36786 188.373 3.0511C191.88 1.6837 195.717 1 199.885 1C204.511 1 208.679 1.81031 212.39 3.43094C216.151 5.00092 219.302 7.33057 221.844 10.4199L213.915 17.7127C212.085 15.6363 210.051 14.0916 207.815 13.0787C205.578 12.0152 203.139 11.4834 200.495 11.4834C198.005 11.4834 195.717 11.8886 193.633 12.6989C191.549 13.5092 189.745 14.674 188.22 16.1934C186.695 17.7127 185.501 19.5106 184.637 21.587C183.823 23.6634 183.417 25.9678 183.417 28.5C183.417 31.0322 183.823 33.3366 184.637 35.413C185.501 37.4894 186.695 39.2873 188.22 40.8066C189.745 42.326 191.549 43.4908 193.633 44.3011C195.717 45.1114 198.005 45.5166 200.495 45.5166C203.139 45.5166 205.578 45.0101 207.815 43.9972C210.051 42.9337 212.085 41.3384 213.915 39.2113L221.844 46.5041C219.302 49.5935 216.151 51.9484 212.39 53.5691C208.679 55.1897 204.486 56 199.809 56Z" stroke="url(#paint3_linear_1_62)" stroke-width="2" mask="url(#path-1-outside-1_1_62)"/>
<path d="M222.203 55.0884L245.991 1.9116H258.19L282.055 55.0884H269.093L249.574 8.14088H254.454L234.859 55.0884H222.203ZM234.097 43.6934L237.375 34.3494H264.823L268.178 43.6934H234.097Z" stroke="url(#paint4_linear_1_62)" stroke-width="2" mask="url(#path-1-outside-1_1_62)"/>
<path d="M305.128 56C300.858 56 296.767 55.4429 292.853 54.3287C288.939 53.1639 285.787 51.6699 283.398 49.8467L287.592 40.5787C289.879 42.1994 292.573 43.5414 295.674 44.605C298.825 45.6179 302.002 46.1243 305.204 46.1243C307.644 46.1243 309.601 45.8964 311.075 45.4406C312.6 44.9342 313.718 44.2505 314.43 43.3895C315.142 42.5285 315.497 41.541 315.497 40.4268C315.497 39.0088 314.938 37.8946 313.82 37.0843C312.702 36.2233 311.228 35.5396 309.398 35.0332C307.568 34.4761 305.535 33.9696 303.298 33.5138C301.113 33.0074 298.902 32.3996 296.665 31.6906C294.479 30.9816 292.472 30.07 290.642 28.9558C288.812 27.8416 287.312 26.3729 286.143 24.5497C285.025 22.7265 284.466 20.3969 284.466 17.5608C284.466 14.5221 285.279 11.762 286.906 9.28039C288.583 6.74816 291.074 4.7477 294.378 3.279C297.732 1.75967 301.926 1 306.958 1C310.313 1 313.617 1.40516 316.87 2.21547C320.123 2.97514 322.995 4.13996 325.486 5.70994L321.673 15.0539C319.183 13.6358 316.692 12.5976 314.201 11.9392C311.711 11.2302 309.271 10.8757 306.882 10.8757C304.493 10.8757 302.536 11.1542 301.011 11.7113C299.486 12.2684 298.393 13.0028 297.732 13.9144C297.072 14.7753 296.741 15.7882 296.741 16.953C296.741 18.3204 297.3 19.4346 298.419 20.2956C299.537 21.1059 301.011 21.7643 302.841 22.2707C304.671 22.7772 306.678 23.2836 308.864 23.7901C311.101 24.2965 313.312 24.8789 315.497 25.5373C317.734 26.1957 319.767 27.082 321.597 28.1961C323.427 29.3103 324.901 30.779 326.019 32.6022C327.188 34.4254 327.773 36.7297 327.773 39.5152C327.773 42.5032 326.934 45.238 325.257 47.7196C323.579 50.2012 321.063 52.2017 317.709 53.721C314.405 55.2403 310.211 56 305.128 56Z" stroke="url(#paint5_linear_1_62)" stroke-width="2" mask="url(#path-1-outside-1_1_62)"/>
<path d="M346.524 55.0884V11.9392H329.445V1.9116H375.954V11.9392H358.875V55.0884H346.524Z" stroke="url(#paint6_linear_1_62)" stroke-width="2" mask="url(#path-1-outside-1_1_62)"/>
<path d="M393.96 23.3343H419.655V32.9061H393.96V23.3343ZM394.875 45.2127H423.925V55.0884H382.6V1.9116H422.933V11.7873H394.875V45.2127Z" stroke="url(#paint7_linear_1_62)" stroke-width="2" mask="url(#path-1-outside-1_1_62)"/>
<path d="M433.752 55.0884V1.9116H456.855C461.633 1.9116 465.75 2.69659 469.206 4.26657C472.663 5.78591 475.331 7.98895 477.212 10.8757C479.093 13.7624 480.033 17.2063 480.033 21.2072C480.033 25.1575 479.093 28.576 477.212 31.4627C475.331 34.2988 472.663 36.4765 469.206 37.9959C465.75 39.5152 461.633 40.2749 456.855 40.2749H440.614L446.104 34.8812V55.0884H433.752ZM467.681 55.0884L454.338 35.7928H467.529L481.024 55.0884H467.681ZM446.104 36.2486L440.614 30.4751H456.168C459.981 30.4751 462.827 29.6648 464.708 28.0442C466.588 26.3729 467.529 24.0939 467.529 21.2072C467.529 18.2698 466.588 15.9908 464.708 14.3702C462.827 12.7495 459.981 11.9392 456.168 11.9392H440.614L446.104 6.08978V36.2486Z" stroke="url(#paint8_linear_1_62)" stroke-width="2" mask="url(#path-1-outside-1_1_62)"/>
<path d="M507.355 56C503.086 56 498.994 55.4429 495.08 54.3287C491.166 53.1639 488.015 51.6699 485.626 49.8467L489.819 40.5787C492.106 42.1994 494.8 43.5414 497.901 44.605C501.052 45.6179 504.229 46.1243 507.432 46.1243C509.871 46.1243 511.828 45.8964 513.302 45.4406C514.827 44.9342 515.946 44.2505 516.657 43.3895C517.369 42.5285 517.725 41.541 517.725 40.4268C517.725 39.0088 517.165 37.8946 516.047 37.0843C514.929 36.2233 513.455 35.5396 511.625 35.0332C509.795 34.4761 507.762 33.9696 505.525 33.5138C503.34 33.0074 501.129 32.3996 498.892 31.6906C496.707 30.9816 494.699 30.07 492.869 28.9558C491.039 27.8416 489.54 26.3729 488.37 24.5497C487.252 22.7265 486.693 20.3969 486.693 17.5608C486.693 14.5221 487.506 11.762 489.133 9.28039C490.81 6.74816 493.301 4.7477 496.605 3.279C499.96 1.75967 504.153 1 509.185 1C512.54 1 515.844 1.40516 519.097 2.21547C522.35 2.97514 525.222 4.13996 527.713 5.70994L523.9 15.0539C521.41 13.6358 518.919 12.5976 516.428 11.9392C513.938 11.2302 511.498 10.8757 509.109 10.8757C506.72 10.8757 504.763 11.1542 503.238 11.7113C501.713 12.2684 500.62 13.0028 499.96 13.9144C499.299 14.7753 498.968 15.7882 498.968 16.953C498.968 18.3204 499.528 19.4346 500.646 20.2956C501.764 21.1059 503.238 21.7643 505.068 22.2707C506.898 22.7772 508.906 23.2836 511.091 23.7901C513.328 24.2965 515.539 24.8789 517.725 25.5373C519.961 26.1957 521.994 27.082 523.824 28.1961C525.654 29.3103 527.128 30.779 528.246 32.6022C529.415 34.4254 530 36.7297 530 39.5152C530 42.5032 529.161 45.238 527.484 47.7196C525.807 50.2012 523.29 52.2017 519.936 53.721C516.632 55.2403 512.438 56 507.355 56Z" stroke="url(#paint9_linear_1_62)" stroke-width="2" mask="url(#path-1-outside-1_1_62)"/>
</g>
<defs>
<filter id="filter0_b_1_62" x="-20" y="-20" width="571" height="97" filterUnits="userSpaceOnUse" color-interpolation-filters="sRGB">
<feFlood flood-opacity="0" result="BackgroundImageFix"/>
<feGaussianBlur in="BackgroundImageFix" stdDeviation="10"/>
<feComposite in2="SourceAlpha" operator="in" result="effect1_backgroundBlur_1_62"/>
<feBlend mode="normal" in="SourceGraphic" in2="effect1_backgroundBlur_1_62" result="shape"/>
</filter>
<linearGradient id="paint0_linear_1_62" x1="265.5" y1="-20.8784" x2="265.5" y2="70.9149" gradientUnits="userSpaceOnUse">
<stop stop-color="#F0F0F0"/>
<stop offset="1" stop-color="#F0F0F0" stop-opacity="0"/>
</linearGradient>
<linearGradient id="paint1_linear_1_62" x1="265.5" y1="-20.8784" x2="265.5" y2="70.9149" gradientUnits="userSpaceOnUse">
<stop stop-color="#F0F0F0"/>
<stop offset="1" stop-color="#F0F0F0" stop-opacity="0"/>
</linearGradient>
<linearGradient id="paint2_linear_1_62" x1="265.5" y1="-20.8784" x2="265.5" y2="70.9149" gradientUnits="userSpaceOnUse">
<stop stop-color="#F0F0F0"/>
<stop offset="1" stop-color="#F0F0F0" stop-opacity="0"/>
</linearGradient>
<linearGradient id="paint3_linear_1_62" x1="265.5" y1="-20.8784" x2="265.5" y2="70.9149" gradientUnits="userSpaceOnUse">
<stop stop-color="#F0F0F0"/>
<stop offset="1" stop-color="#F0F0F0" stop-opacity="0"/>
</linearGradient>
<linearGradient id="paint4_linear_1_62" x1="265.5" y1="-20.8784" x2="265.5" y2="70.9149" gradientUnits="userSpaceOnUse">
<stop stop-color="#F0F0F0"/>
<stop offset="1" stop-color="#F0F0F0" stop-opacity="0"/>
</linearGradient>
<linearGradient id="paint5_linear_1_62" x1="265.5" y1="-20.8784" x2="265.5" y2="70.9149" gradientUnits="userSpaceOnUse">
<stop stop-color="#F0F0F0"/>
<stop offset="1" stop-color="#F0F0F0" stop-opacity="0"/>
</linearGradient>
<linearGradient id="paint6_linear_1_62" x1="265.5" y1="-20.8784" x2="265.5" y2="70.9149" gradientUnits="userSpaceOnUse">
<stop stop-color="#F0F0F0"/>
<stop offset="1" stop-color="#F0F0F0" stop-opacity="0"/>
</linearGradient>
<linearGradient id="paint7_linear_1_62" x1="265.5" y1="-20.8784" x2="265.5" y2="70.9149" gradientUnits="userSpaceOnUse">
<stop stop-color="#F0F0F0"/>
<stop offset="1" stop-color="#F0F0F0" stop-opacity="0"/>
</linearGradient>
<linearGradient id="paint8_linear_1_62" x1="265.5" y1="-20.8784" x2="265.5" y2="70.9149" gradientUnits="userSpaceOnUse">
<stop stop-color="#F0F0F0"/>
<stop offset="1" stop-color="#F0F0F0" stop-opacity="0"/>
</linearGradient>
<linearGradient id="paint9_linear_1_62" x1="265.5" y1="-20.8784" x2="265.5" y2="70.9149" gradientUnits="userSpaceOnUse">
<stop stop-color="#F0F0F0"/>
<stop offset="1" stop-color="#F0F0F0" stop-opacity="0"/>
</linearGradient>
</defs>
</svg>
